<?xml version="1.0" encoding="utf-8"?>
<!-- Generator: Adobe Illustrator 17.1.0, SVG Export Plug-In . SVG Version: 6.00 Build 0)  -->
<!DOCTYPE svg PUBLIC "-//W3C//DTD SVG 1.1//EN" "http://www.w3.org/Graphics/SVG/1.1/DTD/svg11.dtd">
<svg version="1.1" id="Layer_1" xmlns="http://www.w3.org/2000/svg" xmlns:xlink="http://www.w3.org/1999/xlink" x="0px" y="0px"
	 viewBox="0 0 144 144" enable-background="new 0 0 144 144" xml:space="preserve">
<g>
	<path fill="#FFFFFF" d="M39.9,86.1c-0.2-1.2-0.6-4-0.7-4.5c0-0.3-0.1-0.4-0.3-0.4c-0.2,0-0.3,0.1-0.5,0.3c-0.3,0.3-1.2,0.5-1.7,0.6
		c-1,0-1.9,0-4.4,0l-0.5-0.1l-0.3,12.1l-0.4-11.8h0c-2.4,0-3.3-0.1-4.5-0.1c-0.8,0-1.2-0.2-1.5-0.6c-0.2-0.2-0.3-0.3-0.4-0.3
		c-0.2,0-0.3,0.1-0.3,0.4c-0.1,0.5-0.8,3.4-1.1,4.4c0,0.1,0,0.2,0.1,0.2l0.5,0.2c0.1,0,0.2,0,0.2-0.2c0.6-0.8,1.6-2.2,2.1-2.6
		c1-0.3,2.3-0.4,3-0.4h0.8v5.6c0,0.4,0,7.4,0,7.9c0,0.4-0.3,0.7-0.8,0.7h-1.2c-0.1,0-0.2,0.1-0.2,0.2v0.4c0,0.2,0,0.3,0.2,0.3
		c0.3,0,1.3-0.1,3.7-0.1c2.5,0,3.2,0.1,3.5,0.1c0.2,0,0.2-0.1,0.2-0.2v-0.5c0-0.2,0-0.2-0.2-0.2h-1c-0.5,0-0.7-0.3-0.8-0.9
		c0-0.3,0-6.7,0-7v-6.2H34c0.5,0,2.5,0.1,3.1,0.4c0.6,0.5,1.4,1.7,1.9,2.5c0.1,0.2,0.1,0.2,0.2,0.2l0.5-0.2
		C39.8,86.3,39.9,86.2,39.9,86.1z"/>
	<path fill="#FFFFFF" d="M65.6,91.6c3.8,0,6-1.9,6-4.6c0-1.5-0.7-2.8-1.6-3.5c-1.3-1-2.6-1.2-5.4-1.2c-0.7,0-2.1,0.1-2.5,0.1
		c-2.4,0-3.2-0.1-3.4-0.1c-0.1,0-0.1,0-0.1,0.2V83c0,0.1,0,0.2,0.1,0.2h1.1c0.5,0,0.7,0,0.7,0.5c0,0.3,0,2.6,0,4.1v2.6
		c0,2.6-0.1,6.2-0.1,6.4c-0.1,0.6-0.2,0.7-1,0.7h-0.6c-0.1,0-0.1,0-0.1,0.2v0.6c0,0.1,0,0.2,0.2,0.2c0.2,0,1.1-0.1,3,0.1l0.3-13
		l0.4,12.7c2.1,0.1,2.9,0.2,3.1,0.2c0.2,0,0.2-0.1,0.2-0.2v-0.6c0-0.1,0-0.2-0.2-0.2h-1.2c-0.4,0-0.6-0.2-0.6-0.7c0-0.3,0-3.3,0-4.4
		v-0.8C64.3,91.6,64.9,91.6,65.6,91.6z M63.7,83.2c0.4-0.1,0.7-0.1,1.1-0.1c0.9,0,3.2,0.7,3.2,3.8c0,0.8-0.1,1.7-0.5,2.4
		c-0.5,0.8-1.6,1.5-2.3,1.5c-0.4,0-0.9,0-1.4-0.1V83.2z"/>
	<path fill="#FFFFFF" d="M108.8,97.5h-0.9c-0.4,0-0.8-0.1-0.8-0.8c0-0.2-0.1-5.4-0.1-5.7v-1.7c0-0.3,0.1-5.3,0.1-5.5
		c0-0.4,0.3-0.6,0.9-0.6h0.7c0.1,0,0.2,0,0.2-0.2v-0.6c0-0.1,0-0.2-0.2-0.2c-0.3,0-1.1,0-3.1,0.2l-0.2,12.2L105,82.2
		c-2,0-3,0.1-3.3,0.1c-0.1,0-0.2,0-0.2,0.1V83c0,0.1,0.1,0.1,0.2,0.1h1.1c0.5,0,0.7,0.2,0.7,0.8c0,0.3,0.1,4.4,0.1,4.9v1.6
		c0,1.2-0.1,6.1-0.1,6.4c-0.1,0.5-0.6,0.6-1,0.6h-0.7c-0.1,0-0.2,0-0.2,0.1v0.6c0,0.1,0.1,0.2,0.2,0.2c0.2,0,1.2-0.1,3.6-0.1
		c2.1,0,3.1,0.1,3.3,0.1c0.1,0,0.2,0,0.2-0.1v-0.6C109,97.5,108.9,97.5,108.8,97.5z"/>
	<path fill="#FFFFFF" d="M100.7,97.5H100c-0.3,0-0.9-0.3-1.3-1c-0.3-0.6-1.8-4.8-2.3-6.6c-0.4-1.4-2.2-6.5-2.6-7.9
		c-0.1-0.2-0.1-0.4-0.2-0.4c-0.1,0-0.2,0.1-0.3,0.2c-0.1,0.1-0.8,0.2-1,0.4l4.1,11.7l-4.5-11.3c-0.4,0.2-0.8,0.3-1.1,0.4
		c-0.2,0-0.2,0.1-0.2,0.2c0,0.1,0.1,0.2,0.2,0.3c0.2,0.2,0,0.5,0,0.8c-0.2,0.6-2,5.5-2.2,5.9c-0.7,2-2.4,5.9-2.7,6.4
		c-0.5,0.7-1,1-1.5,1h-0.6c-0.1,0-0.2,0.1-0.2,0.2v0.4c0,0.2,0,0.3,0.2,0.3c0.3,0,0.8-0.1,2.5-0.1c1.9,0,2.8,0.1,3.1,0.1
		c0.2,0,0.2-0.1,0.2-0.2v-0.5c0-0.1,0-0.2-0.2-0.2h-0.8c-0.7,0-0.9-0.5-0.9-1c0-0.7,1.1-3.8,1.3-4.3h5c0.3,0.8,1.2,3.7,1.4,4.5
		c0.1,0.6-0.1,0.8-0.7,0.8h-0.6c-0.1,0-0.1,0.1-0.1,0.2v0.4c0,0.2,0,0.3,0.2,0.3c0.5,0,1.2-0.1,3.1-0.1c2.9,0,3.4,0.1,3.8,0.1
		c0.2,0,0.2-0.2,0.2-0.3v-0.4C100.9,97.6,100.9,97.5,100.7,97.5z M88.9,91.2c0.2-0.6,2.1-5.9,2.2-6.2c0.1-0.2,0.1-0.3,0.3-0.3
		c0.1,0,0.2,0.2,0.2,0.5c0.2,0.6,1.5,5.3,1.7,6L88.9,91.2L88.9,91.2z"/>
	<path fill="#FFFFFF" d="M123.5,93.7l-0.5-0.2c-0.1-0.1-0.2,0-0.3,0.1c-0.3,0.8-1.9,3.6-3.1,3.7c-1.2,0.1-2.2,0.1-3.3,0.1h-1.3
		c-0.1-0.9-0.1-5.8-0.1-6.2v-1.9c0-1.6,0.1-5,0.1-5.3c0-0.6,0.1-0.8,0.8-0.8h1.1c0.2,0,0.2-0.1,0.2-0.2v-0.5c0-0.2,0-0.2-0.2-0.2
		c-0.2,0-1.2,0.1-3.8,0.1c-2.1,0-2.9-0.1-3.1-0.1c-0.1,0-0.2,0-0.2,0.2v0.5c0,0.1,0,0.2,0.2,0.2h0.8c0.5,0,0.6,0.2,0.7,0.8
		c0,0.4,0.1,2.8,0.1,4.2v1.3c0,1.4-0.1,7-0.1,7.4c0,0.2-0.1,0.6-1,0.6h-0.7c-0.1,0-0.2,0-0.2,0.2v0.6c0,0.2,0,0.2,0.2,0.2
		c0.3,0,1.2,0,2.8,0.1l0.4-13.1l0.4,12.9c2.3,0,8.3,0,8.9,0.1c0.1-0.6,1-4.3,1.1-4.5C123.6,93.8,123.6,93.7,123.5,93.7z"/>
	<path fill="#FFFFFF" d="M54.8,83.8c-1.9-1.5-3.6-1.8-5.5-1.8c-2,0-4.6,0.5-6.6,2.9c-1.7,2.1-2.1,4.3-2.1,5.6c0,3.3,1.7,5.7,3.3,6.7
		c1.8,1.1,3.8,1.5,5.3,1.5c3.6,0,5.5-1.4,7-3.2c1.2-1.6,1.7-3.3,1.7-5C57.9,87.4,56.5,85.1,54.8,83.8z M41.9,90.5c0.1-4,3-6.1,3-6.1
		s-2.2,1.8-2.2,6.2c0,4.3,2.1,5.8,2.1,5.8S41.8,94.8,41.9,90.5z M49.4,97.6c-1.9,0-5.2-2.1-5.2-7.9c0-1.9,0.7-4.2,2-5.5
		c1.4-1.3,2.5-1.2,3-1.2c1.9,0,5.2,2.7,5.2,7.7C54.3,92.6,53.6,97.6,49.4,97.6z"/>
	<path fill="#FFFFFF" d="M82.3,90.3c-0.9-0.8-1.8-1.4-2.9-1.7c-1.1-0.3-2.4-0.9-3-1.5c-0.6-0.6-0.6-1.2-0.6-2.1
		c0-0.6,0.7-2.1,2.4-2.1c1,0,1.7,0.3,2.3,1c0.8,0.8,1.2,1.7,1.4,2.4c0.1,0.2,0.2,0.2,0.3,0.2l0.5-0.2c0.1,0,0.1,0,0.1-0.1l-0.1-1.2
		c-1-1.3-2.3-2-2.3-2c0.7,0.2,1.7,1,2.4,1.4l-0.3-2.1c0-0.1-0.1-0.4-0.2-0.4c-0.1,0-0.2,0-0.3,0.1l-0.3,0.3
		c-0.1,0.2-0.3,0.2-0.5,0.1c-0.5-0.2-1.4-0.5-3-0.5c-1.4,0-2.2,0.3-3.3,1.1c-0.6,0.5-1,0.9-1.3,1.4c-0.6,1.9,0.4,3.4,3,5.2
		c0,0-2.7-1.3-3.7-3.7c0,0,0,0-0.1,0.3c0,1.3,0.6,2.6,1.4,3.3c1.2,1,2.6,1.7,3.3,2c2.9,1.1,3.3,1.7,3.3,3.5c0,1.8-1.7,2.5-2.8,2.5
		c-1.1,0-2.2-0.5-2.9-1.5c-0.5-0.9-0.9-1.9-0.9-2.6c0-0.2-0.1-0.2-0.2-0.2l-0.6,0c-0.1,0-0.2,0-0.2,0.2l-0.1,2.3
		c1.1,1,1.9,1.5,1.9,1.5C74.5,97,73.6,96.4,73,96l-0.1,1.8c0,0.2,0.1,0.4,0.3,0.4c0.2,0,0.3,0,0.4-0.3c0.1-0.2,0.2-0.4,0.4-0.4
		c0.1,0,0.2,0.1,0.5,0.2c1,0.6,2,1,4.1,1c3,0,5-2.2,5-5C83.5,92.1,83.2,91.1,82.3,90.3z"/>
</g>
<g>
	<path fill="#FFFFFF" d="M66.2,39.3c0.4-0.2,0.7-0.8,0.7-1.3c-0.4,0.4-0.7,0.8-1.1,1.1C66,39.3,66.1,39.3,66.2,39.3z"/>
	<path fill="#FFFFFF" d="M68.5,38.9c-0.6,0.1-1.1,0.4-1.5,0.6c0.5,0.2,1.1,0.4,1.6,0.5C68.5,39.6,68.5,39.3,68.5,38.9z"/>
	<path fill="#FFFFFF" d="M57.8,59.2c-0.2,0-0.5,0-0.7,0.1c0,0.2,0,0.5,0,0.7c0.2,0,0.5,0,0.7,0C57.9,59.8,57.9,59.4,57.8,59.2z"/>
	<path fill="#FFFFFF" d="M58.5,61.2c0,0.1,0.1,0.2,0.1,0.3c0.1-0.1,0.1-0.2,0.2-0.4C58.7,61.2,58.6,61.2,58.5,61.2z"/>
	<path fill="#FFFFFF" d="M60.1,61.7c-0.3,0-0.5,0.2-0.7,0.3c0,0,0,0.1-0.1,0.1c0.2,0.3,0.5,0.5,0.8,0.7
		C60.1,62.4,60.1,62.1,60.1,61.7z"/>
	<path fill="#FFFFFF" d="M75.2,41.6c-0.9-1.2-1.8-2.4-2.8-3.6c-0.1,0.1-0.2,0.2-0.3,0.3c0.7,1,1.4,2,2.1,3.1
		C74.6,41.5,74.9,41.6,75.2,41.6z"/>
	<path fill="#FFFFFF" d="M71.9,38.7c-0.5,0.5-1,1.2-1.8,1.6c0,0,0,0,0,0.1c1.2,0.3,2.4,0.6,3.6,0.9c-0.5-0.8-1.1-1.7-1.6-2.5
		C72,38.7,72,38.7,71.9,38.7z"/>
	<path fill="#FFFFFF" d="M66.6,36.3c-0.5,0.9-1,1.7-1.5,2.6c0,0,0,0.1,0,0.1c0.1,0.1,0.2,0.1,0.3,0.2c0.4-0.1,0.6-0.5,0.8-0.8
		c0.2-0.2,0.5-0.5,0.7-0.8c0.2-0.4,0.2-1.8,0.2-2.4C66.9,35.4,66.7,36,66.6,36.3z"/>
	<path fill="#FFFFFF" d="M90.3,65.3c-0.1-0.2-0.2-0.4-0.3-0.6c-0.1,0.1-0.1,0.1-0.2,0.2C90,65.1,90.1,65.2,90.3,65.3z"/>
	<path fill="#FFFFFF" d="M96,60.8c-0.5-1.2-0.9-2.2-1.6-3.2c-0.4-0.5-0.8-1-1.2-1.5c-0.1,0.1-0.6,1.4-0.6,1.5
		c1.1,1.6,2.2,3.2,3.3,4.8c0.1-0.3,0.3-0.6,0.4-0.9C96.1,61.2,96,60.9,96,60.8z"/>
	<path fill="#FFFFFF" d="M91.6,66.7c0.8,0,1.6-0.6,1.9-1.1C92.5,65.7,92.3,66.3,91.6,66.7C91.6,66.6,91.6,66.6,91.6,66.7z"/>
	<path fill="#FFFFFF" d="M54.8,66.5C54.8,66.5,54.8,66.4,54.8,66.5c-0.9-0.4-0.8-1-2.2-1c0-0.1,0-0.2,0-0.3
		c-0.6-0.5-1.9-0.1-2.6-0.5c-0.6-0.4-0.4-1.5-0.7-2.2c0,0,0,0,0-0.1c-1.2,0.5-2-1-0.6-1.4c0-0.3,0-0.7,0-1c-0.3-0.1-0.3-0.2-0.3-0.5
		c0.3-0.4,0.7-0.6,1.1-0.1c0,0.1-0.1,0.3-0.1,0.4c0,0,0,0,0,0c2.7-0.4,5.5-0.7,8.2-1.1c0-0.3-0.1-0.6,0.2-0.9c0.3-0.1,0.5,0,0.6,0.2
		c0.1,0.3,0,0.4-0.1,0.6c0.1,0.1,0.1,0,0.2,0.1c0,0.4,0,0.8,0,1.2c0.2,0,0.5,0.2,0.6,0.4c0,0,0,0,0.1,0c0.1-0.8,0.3-1.6,0.4-2.4
		c0.2-1.4-0.2-3-0.5-4.1c-0.3-1-0.4-1.9-0.8-2.8c-0.7-1.9-1.7-3.6-2.6-5.2c-0.6-1-1.9-3.6-3.1-3.6c-0.1-0.1-0.1-0.2-0.1-0.4
		c0,0,0-0.1,0.1-0.1c0.9,0.1,1.5,0.9,2.5,1c0.8-0.6,0.8-1.7,0.4-2.9c-0.4-1.2-1.2-2.9-2.3-3.3c-0.2-0.1-0.6-0.1-0.9-0.1
		c0,0,0-0.1-0.1-0.1c0,0,0-0.1,0-0.1c0.3-0.1,1,0.1,1.3,0.2c1.1,0.4,2.2,0.9,3.3,1.3c0.1-0.4-0.1-0.9-0.3-1.1c0.1-0.2,0.3-1,0.2-1.3
		c-0.1-0.2-0.2-0.3-0.2-0.6c0.1,0,0.1-0.1,0.2-0.1c0.1,0,0.1,0,0.2,0c0.1,0.1,0.2,0.2,0.2,0.3c0,0.2-0.1,0.3-0.1,0.4c0,0,0,0,0,0
		c0.1,0.1,0.1,0.2,0.2,0.3c0.1,0.5-0.1,0.5,0.2,0.9c0,0.2-0.1,0.2-0.2,0.3c0.1,0.4,0.1,0.7,0.2,1.1c1,0.6,2.1,1,3.1,1.6
		c0.5,0.3,0.9,0.5,1.4,0.8c0,0,0,0,0,0c0,0.1-0.1,0.1-0.1,0.2c-0.2-0.1-0.5-0.2-0.7-0.3c0,0,0,0,0,0c0.2,0.4,0.5,0.7,0.6,1.2
		c0.3,1.1-0.3,2.4-1,2.7c0,0,0,0,0,0c0.3,0,0.6,0,0.9,0.1c0.8-1.3,1.7-2.6,2.5-3.9c-0.5-0.4-0.9-0.9-1.4-1.2c-0.8-0.5-1.7-1-2.5-1.4
		c-0.5-0.3-1-0.6-1.5-0.9c0,0,0,0-0.1-0.1c0.3-0.1,1.4,0.4,1.8,0.5c1.4,0.5,2.8,1.3,4.4,1.6c0.3-0.6,0.7-1.1,1-1.7
		c0.5-0.8,1-1.6,1.4-2.5c0.1-0.4-0.5-1.5-0.6-1.7c-0.6-1.2-1.6-2.4-2.6-3.2c-0.3-0.2-0.6-0.5-0.9-0.7c0.2-0.7,0.9,0.1,1.2,0.2
		c1.1,0.8,2.3,1.6,3.6,2.2c0,0,0,0,0,0c-0.1-1-0.2-2-0.3-3.1c-0.1,0-0.2,0-0.3,0C67,28.5,67,28.5,67,28.4c0.1-0.1,0.1-0.1,0.3-0.2
		c-0.1-0.2-0.3-0.4-0.2-0.7c0-0.1,0.2-0.2,0.1-0.4C67.2,27,67,27,67.1,26.7c0-0.1,0.1-0.1,0.1-0.1c0.2-0.1,0.3,0,0.4,0.2
		c0.1,0.2-0.1,0.4-0.2,0.5c0.1,0.4,0.3,0.3,0.4,0.7c0,0.1-0.1,0.2-0.2,0.2c0,0.1,0,0.1,0,0.2c0.1,0,0.2,0.1,0.3,0.2
		c0,0.2-0.1,0.2-0.2,0.3c0.2,1.1,0.4,2.3,0.6,3.4c1,0.6,2,1.2,3,1.8c0.4,0.2,1.1,0.5,1.3,0.9c0.1,0.1,0,0.3-0.1,0.4
		c-0.1,0-0.2,0-0.3,0c0.3,0.5,0.7,1.2,0.6,2c-0.1,0.3-0.2,0.5-0.2,0.8c1.2,1.4,2.4,2.7,3.6,4.1c0.2,0,0.4,0,0.6,0
		c0.6,0.1,1.6,0.1,2.1,0.4c0,0,0,0.1,0,0.1c-0.1,0.1-0.3,0.1-0.4,0.2c0.3,0.3,0.5,0.6,0.8,0.9c0.3,0.5,0.6,0.9,1,1.4
		c0.2,0.1,0.4,0.2,0.6,0.4c0.3-0.3,0.5-0.7,0.6-1.1c1.3-2.9-1.1-5.1-3.2-5.9c0,0,0,0,0-0.1c0,0,0-0.1,0-0.1c0.3-0.2,0.6,0.1,0.9,0.2
		c0.8,0.3,1.6,0.6,2.3,1c0,0,0,0,0,0c0.1-1.6,0.2-3.3,0.1-4.9c-0.1,0-0.2,0-0.2,0c-0.1-0.1-0.1-0.1-0.1-0.2c0.1-0.1,0.1-0.2,0.2-0.2
		c0-0.1,0-0.2,0-0.2c-0.1-0.1-0.3-0.2-0.4-0.3c0,0,0-0.1,0-0.1c0.1-0.1,0.2-0.2,0.3-0.3c0.3,0,0.4,0.1,0.6,0.3c0,0,0,0,0,0.1
		c-0.1,0.1-0.1,0.1-0.2,0.2c0,0.2,0,0.3,0.1,0.3c0.1,0.1,0.1,0,0.2,0c0.1,0.3-0.2,0.3-0.1,0.6c0.4,1,0.8,2.2,1,3.3
		c0.2,0.8-0.4,1.4-0.1,2.1c1.2,0.5,2.4,1,3.5,1.4c0,0,0,0.1,0,0.1c0,0.1,0,0.1-0.1,0.2c-0.1,0-0.2,0-0.3,0c0.2,0.7,0.5,1.5,0.2,2.2
		C86,44.3,85.3,44.5,85,45c-0.2,0.5-0.4,0.9-0.6,1.4c1.7,0.1,3.3,0.8,5.3,0.7c0,0.2,0.1,0.2,0,0.4c-0.1,0.1-0.2,0.1-0.5,0.2
		c0.4,0.2,0.8,0.5,1.2,0.7c1.2,0.8,2.2,1.9,2.8,3.3c0.4,1.1,0.2,2.6,0,3.6c-0.1,0.3,0.1,0.5,0.3,0.6c0.8,0.5,2.7,0.8,4.3,0.6
		c0.4-1.9,0.7-3.9,0.7-6c0-14.8-12-26.7-26.7-26.7s-26.7,12-26.7,26.7c0,6,2,11.5,5.3,16C52,66.5,53.5,66.5,54.8,66.5z"/>
	<path fill="#FFFFFF" d="M93.8,62.3c-0.7-1.1-1.4-2.2-2.1-3.3c-0.4,0.6-0.9,1.1-1.3,1.7c0.1,0.4,0.4,0.7,0.5,1
		c0.5,0.9,1.1,1.8,1.6,2.7c0.5,0.1,1.5-0.5,2.1-0.7C94.6,63.2,94.1,62.7,93.8,62.3z"/>
	<path fill="#FFFFFF" d="M87.3,64.1c0.8-0.1,1.6-0.2,2.4-0.3c-0.3-0.5-0.5-0.9-0.8-1.4C88.6,62.6,87.6,63.8,87.3,64.1z"/>
	<path fill="#FFFFFF" d="M66,65.6c0.3,0.1,0.6,0.2,0.9,0.3c1.4,0.5,2.9,0.9,4.5,1.3c0.7,0.1,1.3,0.2,1.9,0.3
		c-0.1-0.7-0.2-1.4-0.3-2.1c-0.9,0.1-1.9,0.2-2.8,0.3C68.7,66,67.2,65.7,66,65.6z"/>
	<path fill="#FFFFFF" d="M51.1,67.1c-0.1,0-0.2,0-0.2,0c0.1,0.1,0.2,0.2,0.3,0.3C51.1,67.3,51.1,67.2,51.1,67.1
		C51.1,67.1,51.1,67.1,51.1,67.1z"/>
	<path fill="#FFFFFF" d="M56.5,59.4c-0.3,0-0.5,0.1-0.8,0.1c0,0,0,0,0,0c0,0.2,0.1,0.4,0.1,0.7c0.2,0,0.5,0,0.7,0
		C56.5,59.9,56.5,59.6,56.5,59.4z"/>
	<path fill="#FFFFFF" d="M63.4,41.8c-0.5,0.7-1.3,1.7-1.6,2.5c0.4,0,3-0.1,3.2-0.1c0.2,0.1,0,0.4,0.1,0.5c0.3,0.5,0.8,0.9,1.2,1.3
		c0.9,1.2,1.7,2.4,2.2,4c1.3,3.9-0.7,8.1-2.7,9.9c0.2,0.6,0.5,1.3,0.7,1.9c0.6-0.5,0.9-1.2,1.3-1.8c2.1-3.7,2.2-9,0.3-13.5
		c-0.6-1.6-1.5-3-2.5-4.3c-0.5-0.6-1.1-1.2-1.6-1.8C63.8,40.9,63.6,41.4,63.4,41.8z"/>
	<path fill="#FFFFFF" d="M54.2,60.4c0.3,0,0.6-0.1,0.9-0.1c0-0.2,0-0.5-0.1-0.7c-0.3,0-0.6,0.1-0.8,0.1
		C54.2,59.9,54.2,60.1,54.2,60.4z"/>
	<path fill="#FFFFFF" d="M84.6,45.2c-0.3,0.1-0.5,0.2-0.8,0.3c0,0.3,0.1,0.5,0.1,0.8c0.1,0,0.1,0,0.2,0
		C84.3,46.2,84.6,45.5,84.6,45.2z"/>
	<path fill="#FFFFFF" d="M58.2,42.9c0,0.3,0.1,0.7,0.1,1c0.3,0.1,0.6,0.2,1,0.2c0,0,0,0,0,0C59.6,43.3,59,42.8,58.2,42.9z"/>
	<path fill="#FFFFFF" d="M53,60.5c0.2,0,0.4,0,0.5-0.1c0-0.2,0.1-0.4,0.1-0.7c0,0,0,0,0,0c-0.2,0-0.4,0-0.7,0.1
		C52.9,60,53,60.2,53,60.5z"/>
	<path fill="#FFFFFF" d="M55.8,43c0.4,0.3,1.1,0.5,1.6,0.6c0.2-0.1,0.1-0.7,0-0.9C56.7,42.8,56.2,42.9,55.8,43z"/>
	<path fill="#FFFFFF" d="M49.4,60.9c0.1,0,0.3,0,0.4,0c0,0,0,0,0-0.1c0-0.2-0.1-0.4-0.1-0.6c-0.1,0-0.3,0-0.4,0
		C49.3,60.5,49.3,60.7,49.4,60.9z"/>
	<path fill="#FFFFFF" d="M91.2,67.9c-0.1,0.1-0.6-0.1-0.9,0c-0.5,0.1-1.3,0.4-1.7,0.7c-0.1,0.4-0.3,0.7-0.4,1.1
		c-0.3,0.7-0.6,1.5-1,2.2c-0.2,0.3-0.4,0.6-0.6,0.9c2.7-1.8,5.1-4.1,7-6.7C92.8,66.7,92,67.3,91.2,67.9z"/>
	<path fill="#FFFFFF" d="M51.6,60c0,0.2,0,0.4,0,0.6c0.2,0,0.5-0.1,0.7-0.1c0-0.2,0-0.4-0.1-0.6C52.1,59.9,51.9,59.9,51.6,60
		C51.7,60,51.7,60,51.6,60z"/>
	<path fill="#FFFFFF" d="M50.3,60.1c0,0.2,0.1,0.4,0.1,0.6c0.2,0,0.4,0,0.6-0.1c0-0.2,0-0.4,0-0.6C50.8,60.1,50.6,60.1,50.3,60.1
		C50.4,60.1,50.4,60.1,50.3,60.1z"/>
	<path fill="#FFFFFF" d="M82.6,38.6c0.1-0.8-0.2-1.4-0.3-2C82.2,36.9,82.5,38.1,82.6,38.6C82.6,38.6,82.6,38.6,82.6,38.6z"/>
	<path fill="#FFFFFF" d="M81.9,39.1c0.1,0,0.1,0,0.1-0.1c-0.1-1-0.2-1.8-0.3-2.8C81.8,36.6,81.8,38.8,81.9,39.1
		C81.9,39.1,81.9,39.1,81.9,39.1z"/>
	<path fill="#FFFFFF" d="M81.1,45.5c0.4,0.1,0.8,0.3,1.2,0.4c0.2-0.2,0.4-0.4,0.6-0.6c0-0.2-0.1-0.4-0.1-0.6c0,0,0,0-0.1,0
		c0,0-0.1,0-0.1,0C81.8,44.7,81.6,45.1,81.1,45.5C81.1,45.4,81.1,45.5,81.1,45.5z"/>
	<path fill="#FFFFFF" d="M85.3,63.1c-0.6,0.1-1.1,0.7-1.5,1c-0.9,0.7-1.7,1.5-2.6,2.3c-0.4,0.3-0.7,0.7-1.1,1c1.5-0.3,4.9-1,5.5-1.9
		c0,0,0,0,0.1,0c-0.5,0-0.9,0-1.4,0C84,65.4,84,65,84.1,64.6c0.3-0.2,1.1-0.2,1.6-0.3C85.9,63.9,85.5,63.3,85.3,63.1z"/>
	<path fill="#FFFFFF" d="M62,63.7C62,63.7,62,63.7,62,63.7c0.2,0.2,0.5,0.3,0.8,0.5c0.5,0.1,2.2-0.5,2.3-0.8
		c0.1-0.3-0.5-1.5-0.7-1.8C63.6,62.3,62.8,63,62,63.7z"/>
	<path fill="#FFFFFF" d="M61.2,61.7c0,0.6,0.1,1.2,0.1,1.7C62.2,63.2,62.4,61.6,61.2,61.7z"/>
	<path fill="#FFFFFF" d="M69.6,38.8C69.5,38.8,69.5,38.8,69.6,38.8c-0.2,0.2,0.1,1,0,1.3c0,0,0,0,0.1,0c0.4-0.2,0.5-0.7,0.3-1.2
		C69.8,38.9,69.7,38.9,69.6,38.8z"/>
	<path fill="#FFFFFF" d="M78.4,63.3c-0.6,0.4-1.3,0.8-2,1.1c-0.3,0.1-0.7,0.2-1,0.4c-0.1,0.1,0.5,2.6,0.6,2.8c0.2,0.1,0.5,0,0.8,0.1
		c0.9,0.1,2.8,0.1,3.2-0.5c0.5-0.8,0.9-1.7,1.3-2.6c0.9-2.5,2.1-5,2.2-8.3c-0.2,0.5-0.4,1-0.6,1.6C81.7,60.1,80.3,62,78.4,63.3z"/>
	<path fill="#FFFFFF" d="M83,45.9C83,46,82.9,46,82.8,46c0.1,0,0.2,0.1,0.3,0.1C83.1,46.1,83,46,83,45.9z"/>
</g>
</svg>
