<?xml version="1.0" encoding="utf-8"?>
<!-- Generator: Adobe Illustrator 17.1.0, SVG Export Plug-In . SVG Version: 6.00 Build 0)  -->
<!DOCTYPE svg PUBLIC "-//W3C//DTD SVG 1.1//EN" "http://www.w3.org/Graphics/SVG/1.1/DTD/svg11.dtd">
<svg version="1.1" id="Layer_1" xmlns="http://www.w3.org/2000/svg" xmlns:xlink="http://www.w3.org/1999/xlink" x="0px" y="0px"
	 viewBox="0 4.5 90.5 26.8" enable-background="new 0 4.5 90.5 26.8" xml:space="preserve">
<g>
	<path fill="#FFFDFD" d="M40.6,16.9c-0.1-0.7-0.3-2.2-0.4-2.5c0-0.1-0.1-0.2-0.1-0.2c-0.1,0-0.2,0.1-0.3,0.2
		c-0.1,0.1-0.6,0.3-0.9,0.3c-0.5,0-1.1,0-2.4,0l-0.3,0L36,21.3l-0.2-6.5h0c-1.3,0-1.8,0-2.5-0.1c-0.4,0-0.7-0.1-0.8-0.3
		c-0.1-0.1-0.1-0.2-0.2-0.2c-0.1,0-0.1,0-0.2,0.2c0,0.2-0.5,1.9-0.6,2.4c0,0,0,0.1,0,0.1l0.3,0.1c0,0,0.1,0,0.1-0.1
		c0.3-0.4,0.9-1.2,1.1-1.4c0.5-0.2,1.3-0.2,1.7-0.2h0.4v3.1c0,0.2,0,4,0,4.3c0,0.2-0.2,0.4-0.4,0.4h-0.6c-0.1,0-0.1,0-0.1,0.1v0.2
		c0,0.1,0,0.1,0.1,0.1c0.2,0,0.7,0,2,0c1.4,0,1.8,0,1.9,0c0.1,0,0.1,0,0.1-0.1v-0.3c0-0.1,0-0.1-0.1-0.1h-0.6
		c-0.3,0-0.4-0.2-0.4-0.5c0-0.2,0-3.6,0-3.8v-3.4h0.4c0.3,0,1.4,0,1.7,0.2c0.3,0.3,0.8,0.9,1.1,1.4c0,0.1,0.1,0.1,0.1,0.1l0.3-0.1
		C40.6,17,40.6,16.9,40.6,16.9z"/>
	<path fill="#FFFDFD" d="M54.6,19.8c2.1,0,3.3-1,3.3-2.5c0-0.8-0.4-1.5-0.9-1.9c-0.7-0.6-1.4-0.7-3-0.7c-0.4,0-1.1,0-1.4,0
		c-1.3,0-1.7,0-1.9,0c-0.1,0-0.1,0-0.1,0.1v0.3c0,0.1,0,0.1,0.1,0.1h0.6c0.2,0,0.4,0,0.4,0.3c0,0.1,0,1.4,0,2.3v1.4
		c0,1.4,0,3.4,0,3.5c0,0.3-0.1,0.4-0.5,0.4h-0.3c-0.1,0-0.1,0-0.1,0.1v0.3c0,0,0,0.1,0.1,0.1c0.1,0,0.6,0,1.6,0l0.1-7.1l0.2,6.9
		c1.1,0,1.6,0.1,1.7,0.1c0.1,0,0.1,0,0.1-0.1v-0.3c0,0,0-0.1-0.1-0.1H54c-0.2,0-0.3-0.1-0.3-0.4c0-0.1,0-1.8,0-2.4v-0.5
		C54,19.8,54.2,19.8,54.6,19.8z M53.6,15.3c0.2,0,0.4-0.1,0.6-0.1c0.5,0,1.7,0.4,1.7,2.1c0,0.5,0,0.9-0.3,1.3
		c-0.3,0.4-0.9,0.8-1.3,0.8c-0.2,0-0.5,0-0.8-0.1L53.6,15.3L53.6,15.3z"/>
	<path fill="#FFFDFD" d="M78.2,23.1h-0.5c-0.2,0-0.4-0.1-0.4-0.4c0-0.1,0-3,0-3.1v-1c0-0.1,0-2.9,0-3c0-0.2,0.2-0.3,0.5-0.3h0.4
		c0.1,0,0.1,0,0.1-0.1v-0.3c0-0.1,0-0.1-0.1-0.1c-0.2,0-0.6,0-1.7,0.1l-0.1,6.6l-0.2-6.8c-1.1,0-1.6,0-1.8,0c0,0-0.1,0-0.1,0.1v0.4
		c0,0,0,0.1,0.1,0.1H75c0.3,0,0.4,0.1,0.4,0.4c0,0.2,0,2.4,0,2.7v0.9c0,0.7,0,3.3-0.1,3.5c0,0.3-0.3,0.3-0.6,0.3h-0.4
		c-0.1,0-0.1,0-0.1,0.1v0.3c0,0.1,0,0.1,0.1,0.1c0.1,0,0.7,0,2,0c1.2,0,1.7,0,1.8,0c0.1,0,0.1,0,0.1-0.1L78.2,23.1
		C78.3,23.1,78.3,23.1,78.2,23.1z"/>
	<path fill="#FFFDFD" d="M73.8,23.1h-0.4c-0.2,0-0.5-0.1-0.7-0.6c-0.2-0.3-1-2.6-1.3-3.6c-0.2-0.8-1.2-3.6-1.4-4.3
		c0-0.1-0.1-0.2-0.1-0.2c-0.1,0-0.1,0-0.2,0.1c-0.1,0.1-0.4,0.1-0.6,0.2l2.2,6.4l-2.5-6.2c-0.2,0.1-0.4,0.2-0.6,0.2
		c-0.1,0-0.1,0.1-0.1,0.1c0,0,0,0.1,0.1,0.2c0.1,0.1,0,0.3,0,0.4c-0.1,0.3-1.1,3-1.2,3.2c-0.4,1.1-1.3,3.2-1.5,3.5
		c-0.2,0.4-0.5,0.5-0.8,0.5h-0.3c-0.1,0-0.1,0-0.1,0.1v0.2c0,0.1,0,0.2,0.1,0.2c0.2,0,0.4,0,1.3,0c1,0,1.5,0,1.7,0
		c0.1,0,0.1,0,0.1-0.1v-0.3c0,0,0-0.1-0.1-0.1H67c-0.4,0-0.5-0.3-0.5-0.6c0-0.4,0.6-2.1,0.7-2.3h2.7c0.1,0.4,0.6,2,0.7,2.5
		c0.1,0.3,0,0.4-0.4,0.4H70c-0.1,0-0.1,0-0.1,0.1v0.2c0,0.1,0,0.2,0.1,0.2c0.2,0,0.7,0,1.7,0c1.6,0,1.8,0,2.1,0
		c0.1,0,0.1-0.1,0.1-0.2v-0.2C73.9,23.1,73.9,23.1,73.8,23.1z M67.4,19.7c0.1-0.3,1.2-3.2,1.2-3.4c0-0.1,0.1-0.2,0.1-0.2
		c0.1,0,0.1,0.1,0.1,0.3c0.1,0.3,0.8,2.9,0.9,3.3C69.8,19.7,67.4,19.7,67.4,19.7z"/>
	<path fill="#FFFDFD" d="M86.3,21L86,20.9c-0.1,0-0.1,0-0.1,0.1c-0.2,0.5-1,1.9-1.7,2C83.5,23,83,23,82.4,23h-0.7c0-0.5,0-3.2,0-3.4
		v-1.1c0-0.9,0-2.7,0-2.9c0-0.3,0-0.5,0.4-0.5h0.6c0.1,0,0.1,0,0.1-0.1v-0.3c0-0.1,0-0.1-0.1-0.1c-0.1,0-0.6,0-2.1,0
		c-1.1,0-1.6,0-1.7,0c-0.1,0-0.1,0-0.1,0.1v0.3c0,0.1,0,0.1,0.1,0.1h0.5c0.3,0,0.3,0.1,0.4,0.4c0,0.2,0,1.5,0,2.3v0.7
		c0,0.8,0,3.8,0,4.1c0,0.1-0.1,0.3-0.5,0.3h-0.4c-0.1,0-0.1,0-0.1,0.1v0.3c0,0.1,0,0.1,0.1,0.1c0.1,0,0.7,0,1.5,0.1l0.2-7.2l0.2,7.1
		c1.3,0,4.6,0,4.9,0c0.1-0.3,0.6-2.4,0.6-2.5C86.3,21,86.3,21,86.3,21z"/>
	<path fill="#FFFDFD" d="M48.7,15.6c-1-0.8-2-1-3-1c-1.1,0-2.5,0.2-3.6,1.6c-1,1.1-1.1,2.3-1.1,3.1c0,1.8,0.9,3.1,1.8,3.7
		c1,0.6,2.1,0.8,2.9,0.8c2,0,3-0.7,3.8-1.7c0.6-0.9,0.9-1.8,0.9-2.7C50.4,17.6,49.7,16.3,48.7,15.6z M41.7,19.2
		c0-2.2,1.6-3.3,1.6-3.3s-1.2,1-1.2,3.4c0,2.4,1.2,3.2,1.2,3.2S41.7,21.6,41.7,19.2z M45.8,23.1c-1,0-2.8-1.1-2.8-4.3
		c0-1,0.4-2.3,1.1-3c0.8-0.7,1.4-0.7,1.6-0.7c1,0,2.8,1.5,2.8,4.2C48.5,20.4,48.1,23.1,45.8,23.1z"/>
	<path fill="#FFFDFD" d="M63.8,19.2c-0.5-0.5-1-0.8-1.6-0.9c-0.6-0.2-1.3-0.5-1.6-0.8c-0.3-0.3-0.3-0.7-0.3-1.1
		c0-0.3,0.4-1.1,1.3-1.1c0.6,0,0.9,0.2,1.2,0.5c0.4,0.4,0.6,0.9,0.8,1.3c0,0.1,0.1,0.1,0.2,0.1L64,17c0,0,0.1,0,0.1-0.1L64,16.2
		c-0.5-0.7-1.3-1.1-1.3-1.1c0.4,0.1,1,0.5,1.3,0.8l-0.2-1.1c0-0.1,0-0.2-0.1-0.2c-0.1,0-0.1,0-0.2,0.1l-0.2,0.2
		c-0.1,0.1-0.2,0.1-0.3,0.1c-0.3-0.1-0.7-0.2-1.6-0.2c-0.8,0-1.2,0.2-1.8,0.6c-0.3,0.3-0.6,0.5-0.7,0.8c-0.3,1,0.2,1.8,1.7,2.8
		c0,0-1.5-0.7-2-2c0,0,0,0,0,0.2c0,0.7,0.3,1.4,0.8,1.8c0.6,0.5,1.4,0.9,1.8,1.1c1.6,0.6,1.8,0.9,1.8,1.9c0,1-1,1.4-1.5,1.4
		c-0.6,0-1.2-0.3-1.6-0.8c-0.3-0.5-0.5-1-0.5-1.4c0-0.1,0-0.1-0.1-0.1l-0.3,0c0,0-0.1,0-0.1,0.1l-0.1,1.3c0.6,0.5,1.1,0.8,1.1,0.8
		c-0.4-0.1-0.8-0.4-1.1-0.7l0,1c0,0.1,0,0.2,0.2,0.2c0.1,0,0.1,0,0.2-0.1c0.1-0.1,0.1-0.2,0.2-0.2c0.1,0,0.1,0,0.3,0.1
		c0.5,0.3,1.1,0.5,2.2,0.5c1.6,0,2.7-1.2,2.7-2.7C64.5,20.1,64.3,19.6,63.8,19.2z"/>
</g>
<g>
	<path fill="#FFFDFD" d="M14,13.5c0.2-0.1,0.3-0.3,0.3-0.6c-0.2,0.2-0.3,0.3-0.5,0.5C13.9,13.5,14,13.5,14,13.5z"/>
	<path fill="#FFFDFD" d="M15,13.3c-0.3,0.1-0.5,0.2-0.7,0.3c0.2,0.1,0.5,0.2,0.7,0.2C15,13.6,15,13.5,15,13.3z"/>
	<path fill="#FFFDFD" d="M10.2,22.4c-0.1,0-0.2,0-0.3,0c0,0.1,0,0.2,0,0.3c0.1,0,0.2,0,0.3,0C10.3,22.7,10.3,22.5,10.2,22.4z"/>
	<path fill="#FFFDFD" d="M10.6,23.3c0,0,0,0.1,0,0.1c0-0.1,0.1-0.1,0.1-0.2C10.6,23.3,10.6,23.3,10.6,23.3z"/>
	<path fill="#FFFDFD" d="M11.2,23.5c-0.1,0-0.2,0.1-0.3,0.1c0,0,0,0,0,0c0.1,0.1,0.2,0.2,0.4,0.3C11.3,23.9,11.3,23.7,11.2,23.5z"/>
	<path fill="#FFFDFD" d="M18,14.5c-0.4-0.5-0.8-1.1-1.2-1.6c-0.1,0-0.1,0.1-0.1,0.2c0.3,0.5,0.6,0.9,0.9,1.4
		C17.8,14.5,17.9,14.5,18,14.5z"/>
	<path fill="#FFFDFD" d="M16.6,13.2c-0.2,0.2-0.5,0.6-0.8,0.7c0,0,0,0,0,0c0.5,0.1,1.1,0.3,1.6,0.4C17.1,14,16.9,13.6,16.6,13.2
		C16.6,13.2,16.6,13.2,16.6,13.2z"/>
	<path fill="#FFFDFD" d="M14.2,12.1c-0.2,0.4-0.4,0.8-0.7,1.2c0,0,0,0,0,0c0,0,0.1,0.1,0.1,0.1c0.2,0,0.3-0.2,0.4-0.3
		c0.1-0.1,0.2-0.2,0.3-0.3c0.1-0.2,0.1-0.8,0.1-1.1C14.3,11.7,14.2,12,14.2,12.1z"/>
	<path fill="#FFFDFD" d="M24.8,25.1c0-0.1-0.1-0.2-0.1-0.3c0,0-0.1,0.1-0.1,0.1C24.7,25,24.7,25.1,24.8,25.1z"/>
	<path fill="#FFFDFD" d="M27.3,23.1c-0.2-0.5-0.4-1-0.7-1.4c-0.2-0.2-0.4-0.4-0.5-0.7c0,0-0.3,0.6-0.3,0.7c0.5,0.7,1,1.4,1.5,2.2
		c0.1-0.1,0.1-0.3,0.2-0.4C27.4,23.3,27.4,23.2,27.3,23.1z"/>
	<path fill="#FFFDFD" d="M25.4,25.7c0.4,0,0.7-0.3,0.8-0.5C25.8,25.3,25.7,25.6,25.4,25.7C25.4,25.7,25.4,25.7,25.4,25.7z"/>
	<path fill="#FFFDFD" d="M8.9,25.7C8.9,25.7,8.9,25.6,8.9,25.7c-0.4-0.2-0.3-0.5-1-0.4c0-0.1,0-0.1,0-0.1c-0.3-0.2-0.9,0-1.2-0.2
		c-0.3-0.2-0.2-0.7-0.3-1c0,0,0,0,0,0c-0.5,0.2-0.9-0.4-0.3-0.6c0-0.2,0-0.3,0-0.5c-0.1,0-0.1-0.1-0.1-0.2c0.1-0.2,0.3-0.3,0.5-0.1
		c0,0.1,0,0.1,0,0.2c0,0,0,0,0,0c1.2-0.2,2.5-0.3,3.7-0.5c0-0.2-0.1-0.3,0.1-0.4c0.1,0,0.2,0,0.3,0.1c0,0.1,0,0.2-0.1,0.3
		c0,0,0.1,0,0.1,0.1c0,0.2,0,0.3,0,0.5c0.1,0,0.2,0.1,0.3,0.2c0,0,0,0,0,0c0-0.3,0.1-0.7,0.2-1.1c0.1-0.6-0.1-1.3-0.2-1.8
		c-0.1-0.4-0.2-0.9-0.3-1.3c-0.3-0.9-0.8-1.6-1.2-2.3c-0.2-0.4-0.8-1.6-1.4-1.6c0-0.1,0-0.1,0-0.2c0,0,0,0,0,0C8.2,14.6,8.6,15,9,15
		c0.4-0.3,0.4-0.8,0.2-1.3c-0.2-0.5-0.5-1.3-1-1.5c-0.1,0-0.2,0-0.4,0c0,0,0,0,0-0.1c0,0,0,0,0,0c0.1-0.1,0.4,0.1,0.6,0.1
		c0.5,0.2,1,0.4,1.5,0.6c0-0.2-0.1-0.4-0.1-0.5c0-0.1,0.1-0.5,0.1-0.6c0-0.1-0.1-0.1-0.1-0.3c0,0,0.1,0,0.1-0.1c0,0,0,0,0.1,0
		c0,0,0.1,0.1,0.1,0.1c0,0.1,0,0.1,0,0.2c0,0,0,0,0,0c0,0,0.1,0.1,0.1,0.1c0.1,0.2-0.1,0.2,0.1,0.4c0,0.1-0.1,0.1-0.1,0.1
		c0,0.2,0.1,0.3,0.1,0.5c0.4,0.2,0.9,0.5,1.4,0.7c0.2,0.1,0.4,0.2,0.6,0.4c0,0,0,0,0,0c0,0,0,0.1-0.1,0.1c-0.1,0-0.2-0.1-0.3-0.1
		c0,0,0,0,0,0c0.1,0.2,0.2,0.3,0.3,0.6c0.1,0.5-0.1,1.1-0.5,1.2c0,0,0,0,0,0c0.1,0,0.3,0,0.4,0c0.4-0.6,0.7-1.2,1.1-1.8
		c-0.2-0.2-0.4-0.4-0.6-0.5c-0.4-0.2-0.7-0.4-1.1-0.6c-0.2-0.1-0.4-0.3-0.7-0.4c0,0,0,0,0,0c0.1-0.1,0.6,0.2,0.8,0.2
		c0.6,0.2,1.2,0.6,2,0.7c0.1-0.3,0.3-0.5,0.4-0.8c0.2-0.4,0.4-0.7,0.6-1.1c0.1-0.2-0.2-0.7-0.3-0.8c-0.3-0.5-0.7-1.1-1.2-1.4
		c-0.1-0.1-0.3-0.2-0.4-0.3c0.1-0.3,0.4,0,0.5,0.1c0.5,0.3,1,0.7,1.6,1c0,0,0,0,0,0c0-0.5-0.1-0.9-0.1-1.4c0,0-0.1,0-0.1,0
		c0,0,0,0,0-0.1c0,0,0.1-0.1,0.1-0.1c0-0.1-0.1-0.2-0.1-0.3c0,0,0.1-0.1,0-0.2c0-0.1-0.1-0.1-0.1-0.2c0,0,0,0,0.1-0.1
		c0.1,0,0.1,0,0.2,0.1c0,0.1,0,0.2-0.1,0.2c0,0.2,0.1,0.1,0.2,0.3c0,0.1,0,0.1-0.1,0.1c0,0,0,0,0,0.1c0.1,0,0.1,0,0.1,0.1
		c0,0.1,0,0.1-0.1,0.1c0.1,0.5,0.2,1,0.3,1.5c0.4,0.3,0.9,0.5,1.3,0.8c0.2,0.1,0.5,0.2,0.6,0.4c0,0.1,0,0.1,0,0.2c0,0-0.1,0-0.1,0
		c0.1,0.2,0.3,0.5,0.2,0.9c0,0.1-0.1,0.2-0.1,0.3c0.5,0.6,1.1,1.2,1.6,1.8c0.1,0,0.2,0,0.3,0c0.3,0,0.7,0,0.9,0.2c0,0,0,0,0,0.1
		c-0.1,0-0.1,0.1-0.2,0.1c0.1,0.1,0.2,0.3,0.3,0.4c0.1,0.2,0.3,0.4,0.4,0.6c0.1,0.1,0.2,0.1,0.3,0.2c0.1-0.1,0.2-0.3,0.3-0.5
		c0.6-1.3-0.5-2.3-1.4-2.6c0,0,0,0,0,0c0,0,0,0,0-0.1c0.1-0.1,0.3,0,0.4,0.1c0.3,0.1,0.7,0.3,1,0.4c0,0,0,0,0,0
		c0.1-0.7,0.1-1.5,0-2.2c0,0-0.1,0-0.1,0c0,0,0,0,0-0.1c0,0,0.1-0.1,0.1-0.1c0,0,0-0.1,0-0.1c-0.1,0-0.1-0.1-0.2-0.1c0,0,0,0,0,0
		c0-0.1,0.1-0.1,0.1-0.1c0.1,0,0.2,0.1,0.3,0.1c0,0,0,0,0,0c0,0-0.1,0.1-0.1,0.1c0,0.1,0,0.1,0.1,0.2c0,0,0,0,0.1,0
		c0.1,0.1-0.1,0.1,0,0.3c0.2,0.4,0.3,1,0.5,1.5c0.1,0.4-0.2,0.6,0,0.9c0.5,0.2,1.1,0.4,1.6,0.6c0,0,0,0,0,0.1c0,0,0,0,0,0.1
		c0,0-0.1,0-0.1,0c0.1,0.3,0.2,0.7,0.1,1c-0.1,0.3-0.4,0.4-0.5,0.6c-0.1,0.2-0.2,0.4-0.3,0.6c0.8,0.1,1.5,0.4,2.4,0.3
		c0,0.1,0,0.1,0,0.2c-0.1,0-0.1,0.1-0.2,0.1c0.2,0.1,0.4,0.2,0.6,0.3c0.5,0.3,1,0.8,1.2,1.5c0.2,0.5,0.1,1.2,0,1.6
		c0,0.1,0,0.2,0.1,0.3c0.4,0.2,1.2,0.3,1.9,0.3c0.2-0.9,0.3-1.8,0.3-2.7c0-6.6-5.4-12-12-12s-12,5.4-12,12c0,2.7,0.9,5.2,2.4,7.2
		C7.6,25.7,8.3,25.7,8.9,25.7z"/>
	<path fill="#FFFDFD" d="M26.4,23.8c-0.3-0.5-0.6-1-0.9-1.5c-0.2,0.3-0.4,0.5-0.6,0.8c0,0.2,0.2,0.3,0.2,0.4
		c0.2,0.4,0.5,0.8,0.7,1.2c0.2,0,0.7-0.2,0.9-0.3C26.7,24.2,26.5,24,26.4,23.8z"/>
	<path fill="#FFFDFD" d="M23.5,24.6c0.4,0,0.7-0.1,1.1-0.1c-0.1-0.2-0.2-0.4-0.4-0.6C24,23.9,23.6,24.5,23.5,24.6z"/>
	<path fill="#FFFDFD" d="M13.9,25.3c0.1,0,0.3,0.1,0.4,0.1c0.6,0.2,1.3,0.4,2,0.6c0.3,0,0.6,0.1,0.9,0.1c0-0.3-0.1-0.6-0.1-0.9
		c-0.4,0-0.8,0.1-1.3,0.1C15.1,25.5,14.4,25.3,13.9,25.3z"/>
	<path fill="#FFFDFD" d="M7.2,25.9c0,0-0.1,0-0.1,0c0,0,0.1,0.1,0.1,0.1C7.3,26,7.2,26,7.2,25.9C7.2,25.9,7.2,25.9,7.2,25.9z"/>
	<path fill="#FFFDFD" d="M9.6,22.5c-0.1,0-0.2,0-0.4,0c0,0,0,0,0,0c0,0.1,0,0.2,0.1,0.3c0.1,0,0.2,0,0.3,0
		C9.7,22.7,9.6,22.6,9.6,22.5z"/>
	<path fill="#FFFDFD" d="M12.7,14.6c-0.2,0.3-0.6,0.8-0.7,1.1c0.2,0,1.4-0.1,1.4,0c0.1,0.1,0,0.2,0.1,0.2c0.1,0.2,0.4,0.4,0.5,0.6
		c0.4,0.5,0.7,1.1,1,1.8c0.6,1.8-0.3,3.6-1.2,4.5c0.1,0.3,0.2,0.6,0.3,0.9c0.2-0.2,0.4-0.5,0.6-0.8c0.9-1.7,1-4,0.1-6.1
		c-0.3-0.7-0.7-1.4-1.1-1.9c-0.2-0.3-0.5-0.5-0.7-0.8C12.9,14.2,12.8,14.4,12.7,14.6z"/>
	<path fill="#FFFDFD" d="M8.6,22.9c0.1,0,0.3,0,0.4,0c0-0.1,0-0.2,0-0.3c-0.1,0-0.2,0-0.4,0C8.6,22.7,8.6,22.8,8.6,22.9z"/>
	<path fill="#FFFDFD" d="M22.3,16.1c-0.1,0.1-0.2,0.1-0.3,0.2c0,0.1,0,0.2,0.1,0.3c0,0,0,0,0.1,0C22.1,16.6,22.2,16.2,22.3,16.1z"/>
	<path fill="#FFFDFD" d="M10.4,15.1c0,0.2,0,0.3,0.1,0.5c0.1,0,0.3,0.1,0.4,0.1c0,0,0,0,0,0C11,15.3,10.8,15.1,10.4,15.1z"/>
	<path fill="#FFFDFD" d="M8.1,23c0.1,0,0.2,0,0.2,0c0-0.1,0-0.2,0-0.3c0,0,0,0,0,0c-0.1,0-0.2,0-0.3,0C8.1,22.8,8.1,22.9,8.1,23z"/>
	<path fill="#FFFDFD" d="M9.3,15.1c0.2,0.2,0.5,0.2,0.7,0.3c0.1,0,0-0.3,0-0.4C9.8,15,9.5,15.1,9.3,15.1z"/>
	<path fill="#FFFDFD" d="M6.5,23.1c0.1,0,0.1,0,0.2,0c0,0,0,0,0,0c0-0.1,0-0.2,0-0.2c-0.1,0-0.1,0-0.2,0C6.4,23,6.4,23.1,6.5,23.1z"
		/>
	<path fill="#FFFDFD" d="M25.2,26.3c-0.1,0-0.3,0-0.4,0c-0.2,0.1-0.6,0.2-0.7,0.3c-0.1,0.2-0.1,0.3-0.2,0.5c-0.1,0.3-0.3,0.7-0.5,1
		c-0.1,0.1-0.2,0.3-0.3,0.4c1.2-0.8,2.3-1.8,3.1-3C25.9,25.8,25.6,26,25.2,26.3z"/>
	<path fill="#FFFDFD" d="M7.5,22.8c0,0.1,0,0.2,0,0.3c0.1,0,0.2,0,0.3,0c0-0.1,0-0.2,0-0.3C7.7,22.7,7.6,22.7,7.5,22.8
		C7.5,22.7,7.5,22.7,7.5,22.8z"/>
	<path fill="#FFFDFD" d="M6.9,22.8c0,0.1,0,0.2,0,0.3c0.1,0,0.2,0,0.3,0c0-0.1,0-0.2,0-0.3C7.1,22.8,7,22.8,6.9,22.8
		C6.9,22.8,6.9,22.8,6.9,22.8z"/>
	<path fill="#FFFDFD" d="M21.4,13.2c0-0.4-0.1-0.6-0.1-0.9C21.2,12.4,21.3,13,21.4,13.2C21.3,13.2,21.4,13.2,21.4,13.2z"/>
	<path fill="#FFFDFD" d="M21,13.4C21.1,13.4,21.1,13.4,21,13.4c0-0.5,0-0.9-0.1-1.3C21,12.3,21,13.3,21,13.4
		C21,13.4,21,13.4,21,13.4z"/>
	<path fill="#FFFDFD" d="M20.7,16.3c0.2,0.1,0.4,0.1,0.5,0.2c0.1-0.1,0.2-0.2,0.2-0.3c0-0.1,0-0.2-0.1-0.2c0,0,0,0,0,0
		c0,0,0,0-0.1,0C21,15.9,20.9,16.1,20.7,16.3C20.7,16.2,20.7,16.3,20.7,16.3z"/>
	<path fill="#FFFDFD" d="M22.6,24.2c-0.3,0-0.5,0.3-0.7,0.5c-0.4,0.3-0.8,0.7-1.2,1c-0.2,0.2-0.3,0.3-0.5,0.5
		c0.7-0.1,2.2-0.4,2.5-0.8c0,0,0,0,0,0c-0.2,0-0.4,0-0.6,0C22,25.2,22,25,22,24.8c0.1-0.1,0.5-0.1,0.7-0.1
		C22.8,24.5,22.7,24.2,22.6,24.2z"/>
	<path fill="#FFFDFD" d="M12.1,24.4C12.1,24.4,12.1,24.4,12.1,24.4c0.1,0.1,0.2,0.2,0.3,0.2c0.2,0.1,1-0.2,1-0.3
		c0-0.1-0.2-0.7-0.3-0.8C12.8,23.8,12.5,24.1,12.1,24.4z"/>
	<path fill="#FFFDFD" d="M11.8,23.5c0,0.3,0,0.5,0.1,0.8C12.2,24.2,12.3,23.5,11.8,23.5z"/>
	<path fill="#FFFDFD" d="M15.5,13.3C15.5,13.3,15.5,13.3,15.5,13.3c-0.1,0.1,0,0.5,0,0.6c0,0,0,0,0,0c0.2-0.1,0.2-0.3,0.1-0.5
		C15.6,13.3,15.6,13.3,15.5,13.3z"/>
	<path fill="#FFFDFD" d="M19.4,24.3c-0.3,0.2-0.6,0.4-0.9,0.5c-0.1,0.1-0.3,0.1-0.4,0.2c0,0,0.2,1.2,0.3,1.3c0.1,0.1,0.2,0,0.4,0
		c0.4,0,1.3,0,1.4-0.2c0.2-0.3,0.4-0.7,0.6-1.2c0.4-1.1,0.9-2.2,1-3.7c-0.1,0.2-0.2,0.5-0.3,0.7C20.9,22.8,20.3,23.6,19.4,24.3z"/>
	<path fill="#FFFDFD" d="M21.5,16.5c0,0-0.1,0-0.1,0C21.5,16.5,21.5,16.5,21.5,16.5C21.5,16.5,21.5,16.5,21.5,16.5z"/>
</g>
</svg>
