<?xml version="1.0" encoding="utf-8"?>
<!-- Generator: Adobe Illustrator 17.1.0, SVG Export Plug-In . SVG Version: 6.00 Build 0)  -->
<!DOCTYPE svg PUBLIC "-//W3C//DTD SVG 1.1//EN" "http://www.w3.org/Graphics/SVG/1.1/DTD/svg11.dtd">
<svg version="1.1" id="Layer_1" xmlns="http://www.w3.org/2000/svg" xmlns:xlink="http://www.w3.org/1999/xlink" x="0px" y="0px"
	 viewBox="0 58 144 28.5" enable-background="new 0 58 144 28.5" xml:space="preserve">
<g>
	<path fill="#FFFFFF" d="M49.904,69.656c-0.141-0.933-0.475-3.116-0.528-3.503c-0.036-0.21-0.088-0.282-0.211-0.282
		s-0.229,0.088-0.405,0.264c-0.211,0.211-0.898,0.422-1.285,0.44c-0.74,0.035-1.497-0.026-3.415-0.026l-0.424-0.046l-0.266,9.39
		l-0.304-9.212h-0.027c-1.831,0-2.57-0.053-3.503-0.105c-0.633-0.036-0.968-0.194-1.162-0.44c-0.158-0.193-0.211-0.264-0.334-0.264
		c-0.123,0-0.211,0.07-0.264,0.299c-0.07,0.351-0.652,2.676-0.845,3.415c-0.017,0.053,0,0.141,0.07,0.158l0.387,0.141
		c0.07,0.018,0.124-0.035,0.176-0.123c0.44-0.633,1.215-1.707,1.602-1.989c0.74-0.264,1.796-0.282,2.359-0.282h0.616v4.348
		c0,0.335,0,5.738-0.035,6.108c-0.035,0.317-0.246,0.528-0.599,0.528H40.61c-0.105,0-0.124,0.053-0.124,0.177v0.334
		c0,0.141,0.017,0.211,0.158,0.211c0.246,0,0.986-0.053,2.851-0.053c1.954,0,2.517,0.053,2.693,0.053
		c0.158,0,0.176-0.053,0.176-0.141v-0.405c0-0.124-0.017-0.177-0.176-0.177h-0.793c-0.422,0-0.563-0.264-0.599-0.704
		c-0.017-0.264-0.017-5.193-0.017-5.439v-4.841h0.581c0.405,0,1.972,0.07,2.412,0.335c0.44,0.423,1.127,1.338,1.514,1.972
		c0.07,0.123,0.105,0.176,0.176,0.158l0.37-0.141C49.886,69.797,49.921,69.727,49.904,69.656z"/>
	<path fill="#FFFFFF" d="M69.883,73.881c2.958,0,4.647-1.444,4.647-3.556c0-1.162-0.528-2.165-1.268-2.729
		c-1.021-0.792-2.06-0.968-4.224-0.968c-0.581,0-1.619,0.053-1.936,0.053c-1.848,0-2.482-0.053-2.676-0.053
		c-0.088,0-0.105,0.036-0.105,0.124v0.458c0,0.106,0.017,0.141,0.105,0.141h0.827c0.352,0,0.528,0.036,0.563,0.387
		c0.017,0.211,0.035,2.06,0.035,3.221v2.025c0,2.042-0.053,4.787-0.07,4.964c-0.053,0.44-0.176,0.528-0.774,0.528h-0.458
		c-0.088,0-0.105,0.036-0.105,0.124v0.476c0,0.07,0.017,0.123,0.141,0.123c0.187,0,0.88-0.068,2.351,0.069l0.208-10.099l0.274,9.893
		c1.609,0.068,2.22,0.137,2.447,0.137c0.141,0,0.158-0.053,0.158-0.141v-0.459c0-0.07-0.017-0.124-0.141-0.124h-0.898
		c-0.282,0-0.458-0.176-0.493-0.563c-0.017-0.21-0.035-2.605-0.035-3.433v-0.652C68.933,73.863,69.337,73.881,69.883,73.881z
		 M68.458,67.35c0.317-0.07,0.528-0.088,0.827-0.088c0.722,0,2.482,0.51,2.482,2.94c0,0.651-0.07,1.32-0.423,1.865
		c-0.387,0.616-1.268,1.179-1.813,1.179c-0.282,0-0.687-0.017-1.074-0.105V67.35z"/>
	<path fill="#FFFFFF" d="M103.523,78.475h-0.721c-0.334,0-0.599-0.088-0.599-0.633c0-0.158-0.053-4.225-0.053-4.401v-1.356
		c0-0.21,0.053-4.102,0.053-4.277c0-0.318,0.265-0.458,0.704-0.458h0.511c0.088,0,0.141-0.035,0.141-0.123v-0.441
		c0-0.105-0.036-0.158-0.124-0.158c-0.232,0-0.837,0.027-2.384,0.136l-0.193,9.473l-0.316-9.661
		c-1.538-0.005-2.349,0.053-2.548,0.053c-0.071,0-0.123,0.036-0.123,0.105v0.511c0,0.07,0.053,0.105,0.141,0.105h0.845
		c0.37,0,0.546,0.176,0.581,0.599c0.017,0.229,0.07,3.398,0.07,3.82v1.232c0,0.933-0.053,4.735-0.088,5
		c-0.07,0.423-0.439,0.475-0.792,0.475h-0.512c-0.088,0-0.141,0.036-0.141,0.106v0.475c0,0.106,0.053,0.141,0.141,0.141
		c0.193,0,0.95-0.053,2.799-0.053c1.672,0,2.376,0.053,2.588,0.053c0.105,0,0.158-0.035,0.158-0.105v-0.495
		C103.664,78.51,103.612,78.475,103.523,78.475z"/>
	<path fill="#FFFFFF" d="M97.239,78.475H96.64c-0.264,0-0.722-0.21-1.021-0.792c-0.246-0.476-1.39-3.749-1.796-5.122
		c-0.335-1.127-1.708-5.07-2.042-6.179c-0.053-0.194-0.088-0.299-0.194-0.299c-0.088,0-0.141,0.07-0.229,0.159
		c-0.079,0.09-0.604,0.175-0.804,0.281l3.195,9.119l-3.494-8.801c-0.32,0.126-0.641,0.23-0.868,0.28
		c-0.141,0.035-0.176,0.105-0.176,0.158c0,0.07,0.07,0.158,0.124,0.229c0.123,0.194,0.035,0.422-0.017,0.599
		c-0.158,0.475-1.584,4.259-1.725,4.611c-0.581,1.55-1.831,4.612-2.077,4.982c-0.351,0.528-0.774,0.774-1.197,0.774h-0.458
		c-0.105,0-0.124,0.053-0.124,0.158v0.335c0,0.124,0.017,0.229,0.124,0.229c0.246,0,0.633-0.053,1.919-0.053
		c1.444,0,2.165,0.053,2.394,0.053c0.141,0,0.158-0.053,0.158-0.194v-0.387c0-0.07-0.018-0.141-0.194-0.141h-0.616
		c-0.528,0-0.687-0.422-0.687-0.81c0-0.563,0.862-2.975,1.003-3.345h3.855c0.211,0.633,0.898,2.887,1.056,3.52
		c0.105,0.458-0.053,0.633-0.528,0.633h-0.492c-0.088,0-0.106,0.07-0.106,0.158v0.335c0,0.124,0.017,0.229,0.194,0.229
		c0.351,0,0.968-0.053,2.429-0.053c2.253,0,2.622,0.053,2.957,0.053c0.141,0,0.158-0.123,0.158-0.229v-0.335
		C97.361,78.546,97.344,78.475,97.239,78.475z M88.067,73.617c0.141-0.44,1.655-4.594,1.743-4.823
		c0.053-0.158,0.105-0.229,0.211-0.229c0.088,0,0.123,0.124,0.193,0.387c0.124,0.44,1.162,4.136,1.321,4.665H88.067z"/>
	<path fill="#FFFFFF" d="M114.964,75.535l-0.352-0.141c-0.105-0.053-0.158,0-0.211,0.106c-0.265,0.651-1.461,2.763-2.412,2.851
		c-0.95,0.088-1.743,0.088-2.57,0.088h-1.003c-0.053-0.704-0.053-4.506-0.053-4.806V72.12c0-1.232,0.053-3.89,0.053-4.119
		c0-0.475,0.07-0.651,0.616-0.651h0.827c0.141,0,0.176-0.053,0.176-0.141v-0.405c0-0.124-0.017-0.177-0.158-0.177
		c-0.158,0-0.898,0.053-2.957,0.053c-1.602,0-2.235-0.053-2.429-0.053c-0.105,0-0.124,0.036-0.124,0.124v0.423
		c0,0.088,0.017,0.176,0.124,0.176h0.652c0.405,0,0.492,0.176,0.528,0.633c0.017,0.282,0.053,2.147,0.053,3.274v0.986
		c0,1.074-0.053,5.457-0.053,5.791c0,0.194-0.106,0.44-0.757,0.44h-0.546c-0.105,0-0.123,0.036-0.123,0.124v0.44
		c0,0.124,0.017,0.158,0.141,0.158c0.21,0,0.963,0.009,2.202,0.116l0.29-10.215l0.332,10.047c1.812,0.001,6.49,0.018,6.929,0.053
		c0.105-0.475,0.81-3.379,0.863-3.503C115.017,75.588,115.017,75.57,114.964,75.535z"/>
	<path fill="#FFFFFF" d="M61.486,67.808c-1.478-1.162-2.834-1.39-4.295-1.39c-1.584,0-3.574,0.351-5.122,2.235
		c-1.356,1.637-1.638,3.309-1.638,4.384c0,2.569,1.338,4.47,2.588,5.227c1.39,0.862,2.922,1.144,4.136,1.144
		c2.782,0,4.277-1.056,5.422-2.482c0.915-1.232,1.32-2.57,1.32-3.855C63.898,70.642,62.825,68.864,61.486,67.808z M51.491,73.008
		c0.066-3.08,2.333-4.734,2.333-4.734s-1.715,1.387-1.719,4.809c-0.005,3.379,1.663,4.533,1.663,4.533S51.42,76.355,51.491,73.008z
		 M57.297,78.581c-1.461,0-4.049-1.602-4.049-6.108c0-1.444,0.528-3.293,1.567-4.277c1.074-1.038,1.954-0.95,2.306-0.95
		c1.478,0,4.014,2.113,4.014,5.967C61.135,74.656,60.554,78.581,57.297,78.581z"/>
	<path fill="#FFFFFF" d="M82.91,72.894c-0.722-0.651-1.409-1.091-2.253-1.337c-0.862-0.246-1.866-0.669-2.324-1.144
		c-0.44-0.44-0.458-0.968-0.458-1.619c0-0.458,0.546-1.602,1.866-1.602c0.792,0,1.32,0.246,1.76,0.74
		c0.599,0.633,0.898,1.32,1.091,1.831c0.053,0.123,0.141,0.158,0.229,0.123l0.387-0.123c0.053-0.017,0.088-0.036,0.088-0.105
		l-0.088-0.939c-0.741-1.001-1.804-1.579-1.804-1.579c0.559,0.136,1.36,0.744,1.859,1.119l-0.249-1.612
		c-0.017-0.106-0.053-0.299-0.176-0.299c-0.106,0-0.194,0.036-0.265,0.105l-0.229,0.229c-0.105,0.124-0.229,0.158-0.406,0.088
		c-0.37-0.141-1.056-0.351-2.341-0.351c-1.074,0-1.743,0.246-2.536,0.845c-0.478,0.359-0.793,0.704-0.996,1.074
		c-0.431,1.48,0.318,2.629,2.362,4.04c0,0-2.075-1.014-2.872-2.846c0,0.035-0.038,0.027-0.043,0.269
		c-0.024,1.021,0.493,2.005,1.109,2.551c0.898,0.774,2.024,1.337,2.553,1.531c2.288,0.862,2.569,1.285,2.569,2.746
		c0,1.39-1.356,1.954-2.201,1.954c-0.845,0-1.707-0.387-2.218-1.197c-0.422-0.687-0.669-1.443-0.704-1.989
		c0-0.123-0.053-0.141-0.124-0.141l-0.458-0.036c-0.071,0-0.124,0-0.141,0.124l-0.106,1.809c0.82,0.782,1.513,1.146,1.513,1.146
		c-0.504-0.198-1.173-0.628-1.635-0.985l-0.053,1.374c-0.017,0.193,0.053,0.282,0.246,0.282c0.124,0,0.211-0.017,0.317-0.211
		c0.105-0.176,0.176-0.299,0.282-0.299c0.088,0,0.193,0.053,0.405,0.194c0.74,0.492,1.567,0.757,3.151,0.757
		c2.324,0,3.854-1.743,3.854-3.89C83.877,74.286,83.597,73.512,82.91,72.894z"/>
</g>
<g>
	<path fill="#FFFFFF" d="M16.283,68.146c0.158-0.094,0.31-0.349,0.325-0.564c-0.159,0.171-0.317,0.343-0.476,0.514
		C16.182,68.112,16.232,68.129,16.283,68.146z"/>
	<path fill="#FFFFFF" d="M17.299,67.946c-0.286,0.057-0.471,0.18-0.694,0.263c0.243,0.079,0.487,0.158,0.73,0.237
		C17.324,68.279,17.311,68.112,17.299,67.946z"/>
	<path fill="#FFFFFF" d="M12.527,77.062c-0.106,0.009-0.212,0.019-0.318,0.027c0.005,0.106,0.011,0.212,0.016,0.319
		c0.111-0.006,0.22-0.011,0.33-0.016C12.569,77.296,12.56,77.137,12.527,77.062z"/>
	<path fill="#FFFFFF" d="M12.835,77.947c0.014,0.045,0.027,0.089,0.041,0.135c0.031-0.055,0.063-0.109,0.094-0.164
		C12.924,77.927,12.879,77.937,12.835,77.947z"/>
	<path fill="#FFFFFF" d="M13.519,78.185c-0.145,0.015-0.204,0.072-0.302,0.118c-0.01,0.016-0.021,0.031-0.032,0.047
		c0.094,0.13,0.237,0.235,0.381,0.312C13.551,78.503,13.535,78.344,13.519,78.185z"/>
	<path fill="#FFFFFF" d="M20.304,69.173c-0.411-0.538-0.823-1.075-1.234-1.614c-0.061,0.025-0.099,0.094-0.118,0.154
		c0.315,0.456,0.632,0.91,0.947,1.366C20.034,69.111,20.168,69.142,20.304,69.173z"/>
	<path fill="#FFFFFF" d="M18.835,67.868c-0.222,0.241-0.468,0.556-0.786,0.702c-0.004,0.007-0.006,0.016-0.01,0.024
		c0.531,0.137,1.063,0.273,1.594,0.41c-0.243-0.379-0.487-0.759-0.73-1.137C18.879,67.865,18.857,67.867,18.835,67.868z"/>
	<path fill="#FFFFFF" d="M16.441,66.78c-0.22,0.391-0.44,0.782-0.659,1.173c0.005,0.015,0.009,0.03,0.014,0.045
		c0.03,0.045,0.088,0.055,0.14,0.072c0.175-0.025,0.278-0.238,0.37-0.349c0.108-0.112,0.217-0.224,0.325-0.337
		c0.106-0.188,0.103-0.812,0.082-1.077C16.582,66.389,16.516,66.646,16.441,66.78z"/>
	<path fill="#FFFFFF" d="M27.08,79.766c-0.038-0.089-0.077-0.179-0.117-0.268c-0.029,0.032-0.057,0.063-0.087,0.096
		C26.932,79.689,26.977,79.725,27.08,79.766z"/>
	<path fill="#FFFFFF" d="M29.601,77.745c-0.206-0.533-0.413-0.988-0.71-1.412c-0.183-0.219-0.364-0.438-0.546-0.657
		c-0.037,0.042-0.288,0.622-0.273,0.675c0.49,0.718,0.981,1.434,1.47,2.152c0.066-0.132,0.129-0.263,0.19-0.397
		C29.683,77.956,29.629,77.818,29.601,77.745z"/>
	<path fill="#FFFFFF" d="M27.647,80.387c0.35-0.017,0.713-0.276,0.829-0.51c-0.438,0.067-0.522,0.33-0.82,0.487
		C27.655,80.372,27.651,80.38,27.647,80.387z"/>
	<path fill="#FFFFFF" d="M11.186,80.3c0-0.004,0-0.007,0-0.011c-0.41-0.17-0.338-0.457-1.002-0.417
		c0.005-0.05,0.01-0.099,0.015-0.149c-0.257-0.236-0.851-0.046-1.152-0.238c-0.253-0.161-0.169-0.687-0.312-0.976
		c0-0.007-0.001-0.015-0.001-0.022c-0.515,0.243-0.89-0.448-0.271-0.625c-0.004-0.155-0.009-0.312-0.012-0.467
		c-0.119-0.025-0.15-0.086-0.148-0.221C8.439,77,8.6,76.923,8.778,77.115c-0.012,0.057-0.025,0.115-0.037,0.173
		c0,0.004,0,0.007,0,0.011c1.231-0.158,2.462-0.315,3.694-0.473c-0.007-0.156-0.055-0.274,0.094-0.392
		c0.129-0.034,0.22,0.01,0.289,0.077c0.037,0.132,0.007,0.196-0.055,0.264c0.04,0.024,0.057,0.021,0.083,0.065
		c0.001,0.175,0.002,0.35,0.004,0.524c0.112,0.021,0.212,0.077,0.26,0.169c0.007,0.004,0.016,0.006,0.024,0.01
		c0.045-0.338,0.118-0.702,0.161-1.091c0.07-0.617-0.084-1.344-0.219-1.837c-0.119-0.438-0.19-0.864-0.339-1.272
		c-0.313-0.863-0.76-1.598-1.18-2.336c-0.25-0.438-0.847-1.614-1.404-1.606c-0.045-0.06-0.048-0.093-0.043-0.191
		c0.011-0.012,0.021-0.024,0.032-0.036c0.385,0.026,0.689,0.425,1.119,0.468c0.355-0.256,0.369-0.774,0.196-1.299
		c-0.174-0.531-0.541-1.283-1.01-1.465c-0.112-0.041-0.248-0.03-0.391-0.047c-0.009-0.019-0.017-0.037-0.026-0.056
		c0.004-0.011,0.007-0.022,0.01-0.035c0.137-0.066,0.432,0.062,0.564,0.108c0.508,0.176,0.978,0.392,1.466,0.587
		c0.038-0.2-0.058-0.402-0.14-0.507c0.045-0.083,0.142-0.464,0.087-0.574c-0.048-0.097-0.107-0.124-0.082-0.269
		c0.026-0.016,0.051-0.034,0.077-0.05c0.022-0.001,0.046-0.002,0.068-0.004c0.036,0.043,0.073,0.088,0.109,0.132
		c0,0.092-0.034,0.118-0.048,0.174c0.004,0.004,0.007,0.007,0.012,0.011c0.025,0.048,0.051,0.097,0.076,0.144
		c0.062,0.23-0.065,0.235,0.089,0.417c-0.011,0.091-0.065,0.089-0.084,0.142c0.027,0.163,0.055,0.324,0.082,0.487
		c0.442,0.25,0.925,0.462,1.382,0.705c0.211,0.118,0.422,0.237,0.635,0.355c0.004,0.007,0.009,0.015,0.012,0.022
		c-0.021,0.027-0.042,0.056-0.065,0.083c-0.106-0.043-0.21-0.088-0.314-0.133c-0.007,0.004-0.015,0.009-0.022,0.012
		c0.106,0.169,0.221,0.329,0.279,0.556c0.124,0.486-0.143,1.075-0.451,1.221c0,0.004,0,0.007,0,0.011
		c0.129,0.009,0.26,0.017,0.389,0.026c0.373-0.589,0.746-1.178,1.119-1.767c-0.212-0.176-0.401-0.381-0.632-0.538
		c-0.371-0.214-0.744-0.426-1.116-0.639c-0.224-0.137-0.447-0.274-0.671-0.411c-0.009-0.011-0.016-0.022-0.025-0.034
		c0.139-0.057,0.646,0.186,0.8,0.245c0.648,0.245,1.247,0.592,1.976,0.733c0.147-0.255,0.293-0.509,0.441-0.764
		c0.214-0.369,0.426-0.736,0.639-1.105c0.051-0.188-0.23-0.651-0.291-0.772c-0.271-0.543-0.713-1.077-1.177-1.412
		c-0.138-0.103-0.277-0.206-0.415-0.309c0.077-0.304,0.39,0.026,0.519,0.111c0.509,0.337,1.048,0.719,1.602,0.991
		c0.004,0,0.007,0,0.011,0c-0.05-0.457-0.099-0.915-0.149-1.372c-0.038-0.006-0.077-0.011-0.114-0.017
		c-0.025-0.035-0.032-0.035-0.027-0.078c0.025-0.047,0.067-0.066,0.133-0.076c-0.03-0.073-0.115-0.19-0.094-0.292
		c0.01-0.046,0.084-0.079,0.048-0.174c-0.031-0.079-0.123-0.109-0.07-0.247c0.019-0.037,0.026-0.042,0.066-0.061
		c0.067-0.029,0.148,0.012,0.175,0.071c0.048,0.098-0.026,0.16-0.07,0.209c0.025,0.173,0.134,0.148,0.164,0.31
		c-0.021,0.056-0.031,0.081-0.086,0.107c0.001,0.022,0.002,0.046,0.004,0.068c0.066,0.014,0.093,0.027,0.129,0.073
		c-0.006,0.078-0.029,0.088-0.086,0.118c0.087,0.509,0.174,1.018,0.26,1.526c0.447,0.266,0.894,0.533,1.341,0.798
		c0.169,0.102,0.473,0.215,0.579,0.381c0.037,0.066,0.012,0.135-0.037,0.161c-0.046,0.021-0.086,0.001-0.127-0.016
		c0.117,0.209,0.297,0.517,0.25,0.877c-0.036,0.115-0.072,0.232-0.108,0.348c0.54,0.615,1.082,1.231,1.622,1.845
		c0.088,0.007,0.175,0.014,0.263,0.021c0.272,0.043,0.716,0.032,0.944,0.158c-0.002,0.019-0.006,0.038-0.009,0.057
		c-0.063,0.03-0.127,0.06-0.19,0.089c0.113,0.135,0.226,0.269,0.34,0.405c0.144,0.21,0.287,0.418,0.431,0.628
		c0.087,0.052,0.173,0.106,0.258,0.158c0.133-0.123,0.205-0.333,0.282-0.505c0.579-1.291-0.493-2.292-1.412-2.642
		c-0.004-0.007-0.009-0.015-0.012-0.022c0.006-0.02,0.014-0.038,0.02-0.058c0.113-0.073,0.274,0.026,0.391,0.071
		c0.349,0.142,0.699,0.284,1.048,0.426c0.004,0,0.007,0,0.011,0c0.06-0.725,0.083-1.474,0.026-2.192
		c-0.035,0.001-0.068,0.004-0.102,0.005c-0.026-0.036-0.035-0.043-0.04-0.112c0.036-0.042,0.051-0.073,0.109-0.097
		c-0.001-0.034-0.004-0.068-0.005-0.102c-0.06-0.042-0.118-0.086-0.178-0.128c-0.002-0.012-0.002-0.027-0.004-0.043
		c0.036-0.063,0.077-0.096,0.129-0.143c0.128,0.007,0.176,0.057,0.257,0.113c0,0.007,0.001,0.015,0.001,0.022
		c-0.029,0.032-0.057,0.063-0.087,0.096c0.004,0.084,0.016,0.115,0.053,0.156c0.025,0.022,0.031,0.02,0.081,0.019
		c0.055,0.118-0.082,0.122-0.032,0.252c0.166,0.445,0.335,0.97,0.451,1.46c0.089,0.38-0.174,0.643-0.045,0.926
		c0.528,0.212,1.055,0.426,1.583,0.638c0.005,0.019,0.01,0.037,0.015,0.056c-0.01,0.024-0.02,0.047-0.031,0.07
		c-0.045,0.006-0.091,0.012-0.135,0.019c0.071,0.3,0.216,0.673,0.084,1c-0.109,0.272-0.396,0.381-0.539,0.608
		c-0.084,0.21-0.169,0.42-0.253,0.628c0.774,0.053,1.468,0.376,2.378,0.324c0.019,0.075,0.026,0.111,0.009,0.183
		c-0.056,0.038-0.102,0.063-0.202,0.067c0.184,0.101,0.368,0.202,0.551,0.303c0.535,0.341,1,0.833,1.239,1.5
		c0.179,0.495,0.104,1.155,0.012,1.596c-0.027,0.132,0.05,0.241,0.129,0.289c0.351,0.22,1.213,0.337,1.917,0.279
		c0.197-0.862,0.302-1.758,0.302-2.68c0-6.609-5.357-11.965-11.965-11.965S6.855,66.575,6.855,73.184
		c0,2.688,0.887,5.168,2.383,7.166C9.891,80.32,10.564,80.332,11.186,80.3z"/>
	<path fill="#FFFFFF" d="M28.643,78.433c-0.31-0.489-0.62-0.98-0.93-1.47c-0.192,0.253-0.385,0.507-0.577,0.759
		c0.025,0.174,0.158,0.308,0.238,0.432c0.241,0.406,0.482,0.812,0.723,1.218c0.224,0.029,0.666-0.245,0.92-0.298
		C28.996,78.832,28.759,78.608,28.643,78.433z"/>
	<path fill="#FFFFFF" d="M25.744,79.264c0.363-0.048,0.725-0.098,1.088-0.147c-0.12-0.211-0.242-0.421-0.363-0.632
		C26.304,78.575,25.854,79.097,25.744,79.264z"/>
	<path fill="#FFFFFF" d="M16.185,79.909c0.132,0.042,0.263,0.086,0.394,0.128c0.635,0.245,1.309,0.405,2.036,0.57
		c0.292,0.046,0.582,0.092,0.874,0.138c-0.05-0.309-0.099-0.618-0.15-0.928c-0.423,0.048-0.847,0.097-1.27,0.144
		C17.413,80.098,16.706,79.966,16.185,79.909z"/>
	<path fill="#FFFFFF" d="M9.524,80.578c-0.035,0.001-0.071,0.004-0.107,0.005c0.037,0.047,0.076,0.094,0.114,0.142
		c-0.002-0.041-0.004-0.082-0.006-0.124C9.524,80.594,9.524,80.586,9.524,80.578z"/>
	<path fill="#FFFFFF" d="M11.926,77.126c-0.12,0.014-0.242,0.027-0.363,0.041c-0.004,0.004-0.007,0.007-0.011,0.012
		c0.016,0.098,0.032,0.196,0.05,0.294c0.111-0.006,0.22-0.011,0.33-0.016C11.929,77.346,11.927,77.237,11.926,77.126z"/>
	<path fill="#FFFFFF" d="M15.016,69.26c-0.204,0.323-0.599,0.765-0.694,1.141c0.194-0.001,1.361-0.06,1.424-0.027
		c0.107,0.062,0.004,0.16,0.057,0.237c0.144,0.205,0.359,0.384,0.52,0.59c0.405,0.518,0.746,1.098,0.981,1.809
		c0.581,1.761-0.32,3.635-1.188,4.452c0.109,0.291,0.22,0.582,0.329,0.873c0.247-0.205,0.426-0.543,0.585-0.828
		c0.931-1.66,0.981-4.047,0.148-6.063c-0.288-0.698-0.668-1.366-1.101-1.917c-0.238-0.269-0.476-0.539-0.714-0.807
		C15.211,68.848,15.124,69.087,15.016,69.26z"/>
	<path fill="#FFFFFF" d="M10.91,77.566c0.133-0.014,0.264-0.029,0.397-0.043c-0.009-0.106-0.019-0.212-0.027-0.318
		c-0.124,0.014-0.25,0.027-0.374,0.042C10.895,77.347,10.89,77.46,10.91,77.566z"/>
	<path fill="#FFFFFF" d="M24.536,70.771c-0.115,0.051-0.231,0.103-0.345,0.154c0.017,0.113,0.035,0.226,0.051,0.339
		c0.022-0.001,0.046-0.002,0.068-0.004C24.384,71.227,24.516,70.89,24.536,70.771z"/>
	<path fill="#FFFFFF" d="M12.702,69.73c0.019,0.151,0.038,0.302,0.057,0.453c0.143,0.035,0.284,0.07,0.427,0.104
		c0.007-0.004,0.015-0.009,0.022-0.012C13.299,69.917,13.058,69.716,12.702,69.73z"/>
	<path fill="#FFFFFF" d="M10.343,77.617c0.079-0.007,0.159-0.015,0.238-0.024c0.014-0.099,0.027-0.199,0.042-0.298
		c0-0.004,0-0.007,0-0.011c-0.098,0.009-0.197,0.017-0.296,0.026C10.333,77.412,10.338,77.515,10.343,77.617z"/>
	<path fill="#FFFFFF" d="M11.598,69.775c0.159,0.155,0.49,0.215,0.721,0.283c0.078-0.048,0.038-0.322-0.009-0.387
		C12.03,69.686,11.805,69.728,11.598,69.775z"/>
	<path fill="#FFFFFF" d="M8.732,77.791c0.065-0.007,0.129-0.014,0.192-0.021c0.004-0.007,0.007-0.016,0.01-0.024
		c-0.016-0.083-0.031-0.165-0.047-0.248c-0.061,0.007-0.12,0.014-0.181,0.021C8.715,77.608,8.723,77.7,8.732,77.791z"/>
	<path fill="#FFFFFF" d="M27.482,80.943c-0.065,0.043-0.268-0.024-0.41,0.01c-0.246,0.057-0.595,0.166-0.748,0.323
		c-0.056,0.166-0.112,0.333-0.169,0.499c-0.123,0.335-0.278,0.672-0.452,0.97c-0.088,0.149-0.181,0.288-0.279,0.418
		c1.212-0.803,2.269-1.822,3.117-3C28.188,80.423,27.835,80.684,27.482,80.943z"/>
	<path fill="#FFFFFF" d="M9.75,77.397c0.005,0.094,0.01,0.19,0.015,0.284c0.106-0.014,0.211-0.026,0.318-0.038
		c-0.009-0.094-0.017-0.189-0.026-0.284c-0.094,0.009-0.189,0.017-0.284,0.026C9.765,77.388,9.758,77.392,9.75,77.397z"/>
	<path fill="#FFFFFF" d="M9.172,77.46c0.016,0.091,0.032,0.181,0.048,0.271c0.087-0.009,0.174-0.016,0.261-0.025
		c0.022-0.081,0.012-0.192-0.004-0.284c-0.091,0.012-0.181,0.025-0.272,0.036C9.194,77.459,9.183,77.459,9.172,77.46z"/>
	<path fill="#FFFFFF" d="M23.633,67.807c0.047-0.365-0.076-0.637-0.149-0.916c-0.055,0.174,0.107,0.709,0.138,0.916
		C23.625,67.807,23.629,67.807,23.633,67.807z"/>
	<path fill="#FFFFFF" d="M23.326,68.05c0.031,0.007,0.067-0.01,0.063-0.056c-0.048-0.431-0.092-0.821-0.142-1.252
		c0.002,0.186,0.01,1.155,0.042,1.277C23.3,68.055,23.326,68.05,23.326,68.05z"/>
	<path fill="#FFFFFF" d="M22.957,70.909c0.178,0.063,0.356,0.127,0.534,0.19c0.094-0.072,0.189-0.171,0.248-0.274
		c-0.02-0.083-0.038-0.165-0.058-0.248c-0.017-0.021-0.001-0.007-0.024-0.021c-0.02-0.006-0.038-0.014-0.058-0.02
		c-0.345,0.019-0.45,0.185-0.633,0.34C22.965,70.885,22.961,70.898,22.957,70.909z"/>
	<path fill="#FFFFFF" d="M24.83,78.809c-0.273,0.032-0.494,0.323-0.672,0.468c-0.406,0.332-0.777,0.689-1.168,1.028
		c-0.168,0.153-0.334,0.305-0.502,0.459c0.676-0.125,2.187-0.435,2.467-0.832c0.007,0,0.015-0.001,0.022-0.001
		c-0.209,0.007-0.417,0.014-0.626,0.02c-0.099-0.127-0.097-0.308-0.047-0.477c0.148-0.092,0.499-0.108,0.713-0.117
		C25.096,79.17,24.937,78.887,24.83,78.809z"/>
	<path fill="#FFFFFF" d="M14.396,79.042c-0.004,0.007-0.006,0.016-0.01,0.024c0.117,0.066,0.235,0.133,0.353,0.199
		c0.212,0.051,0.987-0.246,1.032-0.338c0.037-0.125-0.232-0.684-0.292-0.818C15.117,78.42,14.756,78.731,14.396,79.042z"/>
	<path fill="#FFFFFF" d="M14.043,78.171c0.021,0.257,0.041,0.515,0.062,0.772C14.475,78.834,14.569,78.142,14.043,78.171z"/>
	<path fill="#FFFFFF" d="M17.777,67.921c-0.004,0-0.007,0-0.011,0c-0.056,0.096,0.042,0.458,0.03,0.591
		c0.007,0.007,0.016,0.015,0.024,0.021c0.169-0.106,0.204-0.328,0.12-0.543C17.886,67.97,17.831,67.945,17.777,67.921z"/>
	<path fill="#FFFFFF" d="M21.722,78.898c-0.274,0.191-0.582,0.369-0.898,0.513c-0.149,0.053-0.299,0.107-0.448,0.159
		c-0.024,0.034,0.204,1.159,0.258,1.264c0.075,0.065,0.246,0.014,0.366,0.027c0.4,0.046,1.252,0.04,1.427-0.21
		c0.238-0.34,0.423-0.749,0.58-1.159c0.421-1.099,0.938-2.25,0.964-3.699c-0.091,0.232-0.181,0.466-0.272,0.698
		C23.201,77.452,22.6,78.286,21.722,78.898z"/>
	<path fill="#FFFFFF" d="M23.812,71.105c-0.034,0.014-0.067,0.026-0.101,0.04c0.038,0.014,0.077,0.026,0.117,0.04
		C23.822,71.157,23.817,71.131,23.812,71.105z"/>
</g>
</svg>
