<?xml version="1.0" encoding="utf-8"?>
<!-- Generator: Adobe Illustrator 17.1.0, SVG Export Plug-In . SVG Version: 6.00 Build 0)  -->
<!DOCTYPE svg PUBLIC "-//W3C//DTD SVG 1.1//EN" "http://www.w3.org/Graphics/SVG/1.1/DTD/svg11.dtd">
<svg version="1.1" id="Layer_1" xmlns="http://www.w3.org/2000/svg" xmlns:xlink="http://www.w3.org/1999/xlink" x="0px" y="0px"
	 viewBox="23.3 14 99.3 80" enable-background="new 23.3 14 99.3 80" xml:space="preserve">
<g>
	<path fill="#FFFFFF" d="M42.5,79.8c-0.2-1.1-0.6-3.7-0.6-4.1c0-0.2-0.1-0.3-0.2-0.3s-0.3,0.1-0.5,0.3c-0.2,0.2-1.1,0.5-1.5,0.5
		c-0.9,0-1.8,0-4,0l-0.5-0.1l-0.3,11l-0.4-10.8l0,0c-2.2,0-3-0.1-4.1-0.1c-0.7,0-1.1-0.2-1.4-0.5c-0.2-0.2-0.2-0.3-0.4-0.3
		c-0.1,0-0.2,0.1-0.3,0.4c-0.1,0.4-0.8,3.1-1,4c0,0.1,0,0.2,0.1,0.2l0.5,0.2c0.1,0,0.1,0,0.2-0.1c0.5-0.7,1.4-2,1.9-2.3
		c0.9-0.3,2.1-0.3,2.8-0.3h0.7v5.1c0,0.4,0,6.8,0,7.2c0,0.4-0.3,0.6-0.7,0.6h-1.1c-0.1,0-0.1,0.1-0.1,0.2V91c0,0.2,0,0.2,0.2,0.2
		c0.3,0,1.2-0.1,3.4-0.1c2.3,0,3,0.1,3.2,0.1s0.2-0.1,0.2-0.2v-0.5c0-0.1,0-0.2-0.2-0.2h-0.9c-0.5,0-0.7-0.3-0.7-0.8
		c0-0.3,0-6.1,0-6.4v-5.7h0.7c0.5,0,2.3,0.1,2.8,0.4c0.5,0.5,1.3,1.6,1.8,2.3c0.1,0.1,0.1,0.2,0.2,0.2l0.4-0.2
		C42.5,80,42.5,79.9,42.5,79.8z"/>
	<path fill="#FFFFFF" d="M66,84.8c3.5,0,5.5-1.7,5.5-4.2c0-1.4-0.6-2.5-1.5-3.2c-1.2-0.9-2.4-1.1-5-1.1c-0.7,0-1.9,0.1-2.3,0.1
		c-2.2,0-2.9-0.1-3.1-0.1c-0.1,0-0.1,0-0.1,0.1v0.5c0,0.1,0,0.2,0.1,0.2h1c0.4,0,0.6,0,0.7,0.5c0,0.2,0,2.4,0,3.8v2.4
		c0,2.4-0.1,5.6-0.1,5.8c-0.1,0.5-0.2,0.6-0.9,0.6h-0.5c-0.1,0-0.1,0-0.1,0.1v0.6c0,0.1,0,0.1,0.2,0.1s1-0.1,2.8,0.1l0.2-11.9
		l0.3,11.6C65,91,65.7,91,66,91c0.2,0,0.2-0.1,0.2-0.2v-0.5c0-0.1,0-0.1-0.2-0.1h-1.1c-0.3,0-0.5-0.2-0.6-0.7c0-0.2,0-3.1,0-4v-0.8
		C64.9,84.8,65.3,84.8,66,84.8z M64.3,77.1c0.4-0.1,0.6-0.1,1-0.1c0.8,0,2.9,0.6,2.9,3.5c0,0.8-0.1,1.6-0.5,2.2
		c-0.5,0.7-1.5,1.4-2.1,1.4c-0.3,0-0.8,0-1.3-0.1V77.1z"/>
	<path fill="#FFFFFF" d="M105.6,90.2h-0.8c-0.4,0-0.7-0.1-0.7-0.7c0-0.2-0.1-5-0.1-5.2v-1.6c0-0.2,0.1-4.8,0.1-5
		c0-0.4,0.3-0.5,0.8-0.5h0.6c0.1,0,0.2,0,0.2-0.1v-0.5c0-0.1,0-0.2-0.1-0.2c-0.3,0-1,0-2.8,0.2l-0.2,11.1l-0.4-11.4
		c-1.8,0-2.8,0.1-3,0.1c-0.1,0-0.1,0-0.1,0.1V77c0,0.1,0.1,0.1,0.2,0.1h1c0.4,0,0.6,0.2,0.7,0.7c0,0.3,0.1,4,0.1,4.5v1.4
		c0,1.1-0.1,5.6-0.1,5.9c-0.1,0.5-0.5,0.6-0.9,0.6h-0.6c-0.1,0-0.2,0-0.2,0.1v0.6c0,0.1,0.1,0.2,0.2,0.2c0.2,0,1.1-0.1,3.3-0.1
		c2,0,2.8,0.1,3,0.1c0.1,0,0.2,0,0.2-0.1v-0.6C105.7,90.2,105.7,90.2,105.6,90.2z"/>
	<path fill="#FFFFFF" d="M98.2,90.2h-0.7c-0.3,0-0.8-0.2-1.2-0.9c-0.3-0.6-1.6-4.4-2.1-6c-0.4-1.3-2-6-2.4-7.3
		c-0.1-0.2-0.1-0.4-0.2-0.4s-0.2,0.1-0.3,0.2c-0.1,0.1-0.7,0.2-0.9,0.3l3.8,10.7L90,76.5c-0.4,0.1-0.8,0.3-1,0.3s-0.2,0.1-0.2,0.2
		s0.1,0.2,0.1,0.3c0.1,0.2,0,0.5,0,0.7c-0.2,0.6-1.9,5-2,5.4c-0.7,1.8-2.2,5.4-2.4,5.9c-0.4,0.6-0.9,0.9-1.4,0.9h-0.5
		c-0.1,0-0.1,0.1-0.1,0.2v0.4c0,0.1,0,0.3,0.1,0.3c0.3,0,0.7-0.1,2.3-0.1c1.7,0,2.5,0.1,2.8,0.1c0.2,0,0.2-0.1,0.2-0.2v-0.5
		c0-0.1,0-0.2-0.2-0.2H87c-0.6,0-0.8-0.5-0.8-1c0-0.7,1-3.5,1.2-3.9h4.5c0.2,0.7,1.1,3.4,1.2,4.1c0.1,0.5-0.1,0.7-0.6,0.7h-0.6
		c-0.1,0-0.1,0.1-0.1,0.2v0.4c0,0.1,0,0.3,0.2,0.3c0.4,0,1.1-0.1,2.9-0.1c2.6,0,3.1,0.1,3.5,0.1c0.2,0,0.2-0.1,0.2-0.3v-0.4
		C98.3,90.3,98.3,90.2,98.2,90.2z M87.4,84.5c0.2-0.5,1.9-5.4,2-5.7c0.1-0.2,0.1-0.3,0.2-0.3s0.1,0.1,0.2,0.5
		c0.1,0.5,1.4,4.9,1.6,5.5H87.4L87.4,84.5z"/>
	<path fill="#FFFFFF" d="M119,86.7l-0.4-0.2c-0.1-0.1-0.2,0-0.2,0.1c-0.3,0.8-1.7,3.3-2.8,3.4c-1.1,0.1-2,0.1-3,0.1h-1.2
		c-0.1-0.8-0.1-5.3-0.1-5.7v-1.8c0-1.4,0.1-4.6,0.1-4.8c0-0.6,0.1-0.8,0.7-0.8h1c0.2,0,0.2-0.1,0.2-0.2v-0.5c0-0.1,0-0.2-0.2-0.2
		s-1.1,0.1-3.5,0.1c-1.9,0-2.6-0.1-2.9-0.1c-0.1,0-0.1,0-0.1,0.1v0.5c0,0.1,0,0.2,0.1,0.2h0.8c0.5,0,0.6,0.2,0.6,0.7
		c0,0.3,0.1,2.5,0.1,3.9v1.2c0,1.3-0.1,6.4-0.1,6.8c0,0.2-0.1,0.5-0.9,0.5h-0.6c-0.1,0-0.1,0-0.1,0.1v0.5c0,0.1,0,0.2,0.2,0.2
		s1.1,0,2.6,0.1l0.3-12l0.4,11.8c2.1,0,7.6,0,8.2,0.1c0.1-0.6,1-4,1-4.1C119.1,86.8,119.1,86.8,119,86.7z"/>
	<path fill="#FFFFFF" d="M56.1,77.6C54.4,76.2,52.8,76,51,76c-1.9,0-4.2,0.4-6,2.6c-1.6,1.9-1.9,3.9-1.9,5.2c0,3,1.6,5.3,3,6.1
		c1.6,1,3.4,1.3,4.9,1.3c3.3,0,5-1.2,6.4-2.9c1.1-1.4,1.6-3,1.6-4.5C58.9,81,57.7,78.9,56.1,77.6z M44.4,83.8
		c0.1-3.6,2.7-5.6,2.7-5.6s-2,1.6-2,5.7c0,4,2,5.3,2,5.3S44.3,87.7,44.4,83.8z M51.2,90.3c-1.7,0-4.8-1.9-4.8-7.2
		c0-1.7,0.6-3.9,1.8-5c1.3-1.2,2.3-1.1,2.7-1.1c1.7,0,4.7,2.5,4.7,7C55.7,85.7,55,90.3,51.2,90.3z"/>
	<path fill="#FFFFFF" d="M81.3,83.6c-0.8-0.8-1.7-1.3-2.7-1.6c-1-0.3-2.2-0.8-2.7-1.3s-0.5-1.1-0.5-1.9c0-0.5,0.6-1.9,2.2-1.9
		c0.9,0,1.6,0.3,2.1,0.9c0.7,0.7,1.1,1.6,1.3,2.2c0.1,0.1,0.2,0.2,0.3,0.1l0.5-0.1c0.1,0,0.1,0,0.1-0.1l-0.1-1.1
		c-0.9-1.2-2.1-1.9-2.1-1.9c0.7,0.2,1.6,0.9,2.2,1.3l-0.3-1.9c0-0.1-0.1-0.4-0.2-0.4s-0.2,0-0.3,0.1l-0.3,0.3
		c-0.1,0.1-0.3,0.2-0.5,0.1c-0.4-0.2-1.2-0.4-2.8-0.4c-1.3,0-2,0.3-3,1c-0.6,0.4-0.9,0.8-1.2,1.3C72.8,80,73.6,81.4,76,83
		c0,0-2.4-1.2-3.4-3.3c0,0,0,0-0.1,0.3c0,1.2,0.6,2.4,1.3,3c1.1,0.9,2.4,1.6,3,1.8c2.7,1,3,1.5,3,3.2c0,1.6-1.6,2.3-2.6,2.3
		s-2-0.5-2.6-1.4c-0.5-0.8-0.8-1.7-0.8-2.3c0-0.1-0.1-0.2-0.1-0.2h-0.5c-0.1,0-0.1,0-0.2,0.1l-0.1,2.1c1,0.9,1.8,1.3,1.8,1.3
		c-0.6-0.2-1.4-0.7-1.9-1.2l-0.1,1.6c0,0.2,0.1,0.3,0.3,0.3c0.1,0,0.2,0,0.4-0.2c0.1-0.2,0.2-0.4,0.3-0.4c0.1,0,0.2,0.1,0.5,0.2
		c0.9,0.6,1.8,0.9,3.7,0.9c2.7,0,4.5-2,4.5-4.6C82.5,85.3,82.1,84.3,81.3,83.6z"/>
</g>
<g>
	<path fill="#FFFFFF" d="M67.7,34.2c0.4-0.2,0.7-0.8,0.7-1.3c-0.4,0.4-0.7,0.8-1.1,1.1C67.5,34.1,67.6,34.1,67.7,34.2z"/>
	<path fill="#FFFFFF" d="M70,33.7c-0.6,0.1-1.1,0.4-1.5,0.6c0.5,0.2,1.1,0.4,1.6,0.5C70,34.5,70,34.1,70,33.7z"/>
	<path fill="#FFFFFF" d="M59.3,54.1c-0.2,0-0.5,0-0.7,0.1c0,0.2,0,0.5,0,0.7c0.2,0,0.5,0,0.7,0C59.4,54.6,59.4,54.3,59.3,54.1z"/>
	<path fill="#FFFFFF" d="M60,56.1c0,0.1,0.1,0.2,0.1,0.3c0.1-0.1,0.1-0.2,0.2-0.4C60.2,56,60.1,56,60,56.1z"/>
	<path fill="#FFFFFF" d="M61.5,56.6c-0.3,0-0.5,0.2-0.7,0.3c0,0,0,0.1-0.1,0.1c0.2,0.3,0.5,0.5,0.8,0.7
		C61.6,57.3,61.6,56.9,61.5,56.6z"/>
	<path fill="#FFFFFF" d="M76.7,36.5c-0.9-1.2-1.8-2.4-2.8-3.6c-0.1,0.1-0.2,0.2-0.3,0.3c0.7,1,1.4,2,2.1,3
		C76.1,36.3,76.4,36.4,76.7,36.5z"/>
	<path fill="#FFFFFF" d="M73.4,33.6c-0.5,0.5-1,1.2-1.8,1.6c0,0,0,0,0,0.1c1.2,0.3,2.4,0.6,3.6,0.9c-0.5-0.8-1.1-1.7-1.6-2.5
		C73.5,33.6,73.5,33.6,73.4,33.6z"/>
	<path fill="#FFFFFF" d="M68.1,31.1c-0.5,0.9-1,1.7-1.5,2.6v0.1c0.1,0.1,0.2,0.1,0.3,0.2c0.4-0.1,0.6-0.5,0.8-0.8
		c0.2-0.2,0.5-0.5,0.7-0.8c0.2-0.4,0.2-1.8,0.2-2.4C68.4,30.3,68.2,30.8,68.1,31.1z"/>
	<path fill="#FFFFFF" d="M91.8,60.1c-0.1-0.2-0.2-0.4-0.3-0.6c-0.1,0.1-0.1,0.1-0.2,0.2C91.5,59.9,91.6,60,91.8,60.1z"/>
	<path fill="#FFFFFF" d="M97.4,55.6c-0.5-1.2-0.9-2.2-1.6-3.2c-0.4-0.5-0.8-1-1.2-1.5C94.5,51,94,52.3,94,52.4
		c1.1,1.6,2.2,3.2,3.3,4.8c0.1-0.3,0.3-0.6,0.4-0.9C97.6,56.1,97.5,55.8,97.4,55.6z"/>
	<path fill="#FFFFFF" d="M93.1,61.5c0.8,0,1.6-0.6,1.9-1.1C94,60.5,93.8,61.1,93.1,61.5L93.1,61.5z"/>
	<path fill="#FFFFFF" d="M56.3,61.3L56.3,61.3c-0.9-0.4-0.8-1-2.2-1c0-0.1,0-0.2,0-0.3c-0.6-0.5-1.9-0.1-2.6-0.5
		c-0.6-0.4-0.4-1.5-0.7-2.2c0,0,0,0,0-0.1c-1.2,0.5-2-1-0.6-1.4c0-0.3,0-0.7,0-1c-0.3-0.1-0.3-0.2-0.3-0.5c0.3-0.4,0.7-0.6,1.1-0.1
		c0,0.1-0.1,0.3-0.1,0.4l0,0c2.7-0.4,5.5-0.7,8.2-1.1c0-0.3-0.1-0.6,0.2-0.9c0.3-0.1,0.5,0,0.6,0.2c0.1,0.3,0,0.4-0.1,0.6
		c0.1,0.1,0.1,0,0.2,0.1c0,0.4,0,0.8,0,1.2c0.2,0,0.5,0.2,0.6,0.4c0,0,0,0,0.1,0c0.1-0.8,0.3-1.6,0.4-2.4c0.2-1.4-0.2-3-0.5-4.1
		c-0.3-1-0.4-1.9-0.8-2.8c-0.7-1.9-1.7-3.6-2.6-5.2c-0.6-1-1.9-3.6-3.1-3.6C54,36.9,54,36.8,54,36.6c0,0,0-0.1,0.1-0.1
		c0.9,0.1,1.5,0.9,2.5,1c0.8-0.6,0.8-1.7,0.4-2.9c-0.4-1.2-1.2-2.9-2.3-3.3c-0.2-0.1-0.6-0.1-0.9-0.1c0,0,0-0.1-0.1-0.1V31
		c0.3-0.1,1,0.1,1.3,0.2c1.1,0.4,2.2,0.9,3.3,1.3c0.1-0.4-0.1-0.9-0.3-1.1c0.1-0.2,0.3-1,0.2-1.3C58.1,30,58,29.9,58,29.6
		c0.1,0,0.1-0.1,0.2-0.1c0.1,0,0.1,0,0.2,0c0.1,0.1,0.2,0.2,0.2,0.3c0,0.2-0.1,0.3-0.1,0.4l0,0c0.1,0.1,0.1,0.2,0.2,0.3
		c0.1,0.5-0.1,0.5,0.2,0.9c0,0.2-0.1,0.2-0.2,0.3c0.1,0.4,0.1,0.7,0.2,1.1c1,0.6,2.1,1,3.1,1.6c0.5,0.3,0.9,0.5,1.4,0.8l0,0
		c0,0.1-0.1,0.1-0.1,0.2c-0.2-0.1-0.5-0.2-0.7-0.3l0,0c0.2,0.4,0.5,0.7,0.6,1.2c0.3,1.1-0.3,2.4-1,2.7l0,0c0.3,0,0.6,0,0.9,0.1
		c0.8-1.3,1.7-2.6,2.5-3.9c-0.5-0.4-0.9-0.9-1.4-1.2c-0.8-0.5-1.7-1-2.5-1.4c-0.5-0.3-1-0.6-1.5-0.9c0,0,0,0-0.1-0.1
		c0.3-0.1,1.4,0.4,1.8,0.5c1.4,0.5,2.8,1.3,4.4,1.6c0.3-0.6,0.7-1.1,1-1.7c0.5-0.8,1-1.6,1.4-2.5c0.1-0.4-0.5-1.5-0.6-1.7
		c-0.6-1.2-1.6-2.4-2.6-3.2c-0.3-0.2-0.6-0.5-0.9-0.7c0.2-0.7,0.9,0.1,1.2,0.2c1.1,0.8,2.3,1.6,3.6,2.2l0,0c-0.1-1-0.2-2-0.3-3.1
		c-0.1,0-0.2,0-0.3,0c-0.1-0.1-0.1-0.1-0.1-0.2c0.1-0.1,0.1-0.1,0.3-0.2c-0.1-0.2-0.3-0.4-0.2-0.7c0-0.1,0.2-0.2,0.1-0.4
		c-0.1-0.2-0.3-0.2-0.2-0.6c0-0.1,0.1-0.1,0.1-0.1c0.2-0.1,0.3,0,0.4,0.2s-0.1,0.4-0.2,0.5c0.1,0.4,0.3,0.3,0.4,0.7
		c0,0.1-0.1,0.2-0.2,0.2c0,0.1,0,0.1,0,0.2c0.1,0,0.2,0.1,0.3,0.2c0,0.2-0.1,0.2-0.2,0.3c0.2,1.1,0.4,2.3,0.6,3.4c1,0.6,2,1.2,3,1.8
		c0.4,0.2,1.1,0.5,1.3,0.9c0.1,0.1,0,0.3-0.1,0.4c-0.1,0-0.2,0-0.3,0c0.3,0.5,0.7,1.2,0.6,2c-0.1,0.3-0.2,0.5-0.2,0.8
		c1.2,1.4,2.4,2.7,3.6,4.1c0.2,0,0.4,0,0.6,0c0.6,0.1,1.6,0.1,2.1,0.4v0.1c-0.1,0.1-0.3,0.1-0.4,0.2c0.3,0.3,0.5,0.6,0.8,0.9
		c0.3,0.5,0.6,0.9,1,1.4c0.2,0.1,0.4,0.2,0.6,0.4c0.3-0.3,0.5-0.7,0.6-1.1c1.3-2.9-1.1-5.1-3.2-5.9l0,0V33c0.3-0.2,0.6,0.1,0.9,0.2
		c0.8,0.3,1.6,0.6,2.3,1l0,0c0.1-1.6,0.2-3.3,0.1-4.9c-0.1,0-0.2,0-0.2,0c-0.1-0.1-0.1-0.1-0.1-0.2c0.1-0.1,0.1-0.2,0.2-0.2
		c0-0.1,0-0.2,0-0.2c-0.1-0.1-0.3-0.2-0.4-0.3v-0.1c0.1-0.1,0.2-0.2,0.3-0.3c0.3,0,0.4,0.1,0.6,0.3c0,0,0,0,0,0.1
		c-0.1,0.1-0.1,0.1-0.2,0.2c0,0.2,0,0.3,0.1,0.4s0.1,0,0.2,0c0.1,0.3-0.2,0.3-0.1,0.6c0.4,1,0.8,2.2,1,3.3c0.2,0.8-0.4,1.4-0.1,2.1
		c1.2,0.5,2.4,1,3.5,1.4v0.1c0,0.1,0,0.1-0.1,0.2c-0.1,0-0.2,0-0.3,0c0.2,0.7,0.5,1.5,0.2,2.2c-0.2,0.6-0.9,0.9-1.2,1.4
		c-0.2,0.5-0.4,0.9-0.6,1.4c1.7,0.1,3.3,0.8,5.3,0.7c0,0.2,0.1,0.2,0,0.4c-0.1,0.1-0.2,0.1-0.5,0.2c0.4,0.2,0.8,0.5,1.2,0.7
		c1.2,0.8,2.2,1.9,2.8,3.3c0.4,1.1,0.2,2.6,0,3.6c-0.1,0.3,0.1,0.5,0.3,0.6c0.8,0.5,2.7,0.8,4.3,0.6c0.4-1.9,0.7-3.9,0.7-6
		c0-14.8-12-26.7-26.7-26.7s-26.7,12-26.7,26.7c0,6,2,11.5,5.3,16C53.4,61.4,54.9,61.4,56.3,61.3z"/>
	<path fill="#FFFFFF" d="M95.3,57.1c-0.7-1.1-1.4-2.2-2.1-3.3c-0.4,0.6-0.9,1.1-1.3,1.7c0.1,0.4,0.4,0.7,0.5,1
		c0.5,0.9,1.1,1.8,1.6,2.7c0.5,0.1,1.5-0.5,2.1-0.7C96.1,58,95.6,57.5,95.3,57.1z"/>
	<path fill="#FFFFFF" d="M88.8,59c0.8-0.1,1.6-0.2,2.4-0.3c-0.3-0.5-0.5-0.9-0.8-1.4C90.1,57.5,89.1,58.6,88.8,59z"/>
	<path fill="#FFFFFF" d="M67.5,60.4c0.3,0.1,0.6,0.2,0.9,0.3c1.4,0.5,2.9,0.9,4.5,1.3c0.7,0.1,1.3,0.2,1.9,0.3
		c-0.1-0.7-0.2-1.4-0.3-2.1c-0.9,0.1-1.9,0.2-2.8,0.3C70.2,60.9,68.7,60.6,67.5,60.4z"/>
	<path fill="#FFFFFF" d="M52.6,61.9c-0.1,0-0.2,0-0.2,0c0.1,0.1,0.2,0.2,0.3,0.3C52.6,62.2,52.6,62.1,52.6,61.9
		C52.6,62,52.6,62,52.6,61.9z"/>
	<path fill="#FFFFFF" d="M58,54.2c-0.3,0-0.5,0.1-0.8,0.1l0,0c0,0.2,0.1,0.4,0.1,0.7c0.2,0,0.5,0,0.7,0C58,54.7,58,54.5,58,54.2z"/>
	<path fill="#FFFFFF" d="M64.9,36.7c-0.5,0.7-1.3,1.7-1.6,2.5c0.4,0,3-0.1,3.2-0.1c0.2,0.1,0,0.4,0.1,0.5c0.3,0.5,0.8,0.9,1.2,1.3
		c0.9,1.2,1.7,2.5,2.2,4c1.3,3.9-0.7,8.1-2.7,9.9c0.2,0.6,0.5,1.3,0.7,1.9c0.6-0.5,0.9-1.2,1.3-1.8c2.1-3.7,2.2-9,0.3-13.5
		c-0.6-1.6-1.5-3-2.5-4.3c-0.5-0.6-1.1-1.2-1.6-1.8C65.3,35.8,65.1,36.3,64.9,36.7z"/>
	<path fill="#FFFFFF" d="M55.7,55.2c0.3,0,0.6-0.1,0.9-0.1c0-0.2,0-0.5-0.1-0.7c-0.3,0-0.6,0.1-0.8,0.1C55.7,54.7,55.7,55,55.7,55.2
		z"/>
	<path fill="#FFFFFF" d="M86.1,40c-0.3,0.1-0.5,0.2-0.8,0.3c0,0.3,0.1,0.5,0.1,0.8c0.1,0,0.1,0,0.2,0C85.8,41.1,86.1,40.3,86.1,40z"
		/>
	<path fill="#FFFFFF" d="M59.7,37.7c0,0.3,0.1,0.7,0.1,1c0.3,0.1,0.6,0.2,1,0.2l0,0C61.1,38.1,60.5,37.7,59.7,37.7z"/>
	<path fill="#FFFFFF" d="M54.5,55.3c0.2,0,0.4,0,0.5-0.1c0-0.2,0.1-0.4,0.1-0.7l0,0c-0.2,0-0.4,0-0.7,0.1
		C54.4,54.9,54.4,55.1,54.5,55.3z"/>
	<path fill="#FFFFFF" d="M57.3,37.8c0.4,0.3,1.1,0.5,1.6,0.6c0.2-0.1,0.1-0.7,0-0.9C58.2,37.6,57.7,37.7,57.3,37.8z"/>
	<path fill="#FFFFFF" d="M50.9,55.7c0.1,0,0.3,0,0.4,0c0,0,0,0,0-0.1c0-0.2-0.1-0.4-0.1-0.6c-0.1,0-0.3,0-0.4,0
		C50.8,55.3,50.8,55.5,50.9,55.7z"/>
	<path fill="#FFFFFF" d="M92.7,62.8c-0.1,0.1-0.6-0.1-0.9,0c-0.5,0.1-1.3,0.4-1.7,0.7c-0.1,0.4-0.3,0.7-0.4,1.1
		c-0.3,0.7-0.6,1.5-1,2.2c-0.2,0.3-0.4,0.6-0.6,0.9c2.7-1.8,5.1-4.1,7-6.7C94.3,61.6,93.5,62.2,92.7,62.8z"/>
	<path fill="#FFFFFF" d="M53.1,54.8c0,0.2,0,0.4,0,0.6c0.2,0,0.5-0.1,0.7-0.1c0-0.2,0-0.4-0.1-0.6C53.6,54.8,53.4,54.8,53.1,54.8
		C53.2,54.8,53.1,54.8,53.1,54.8z"/>
	<path fill="#FFFFFF" d="M51.8,55c0,0.2,0.1,0.4,0.1,0.6c0.2,0,0.4,0,0.6-0.1c0-0.2,0-0.4,0-0.6C52.3,54.9,52.1,54.9,51.8,55
		C51.9,55,51.9,55,51.8,55z"/>
	<path fill="#FFFFFF" d="M84.1,33.4c0.1-0.8-0.2-1.4-0.3-2C83.7,31.8,84,33,84.1,33.4L84.1,33.4z"/>
	<path fill="#FFFFFF" d="M83.4,34C83.5,34,83.5,34,83.4,34c0-1.1-0.1-1.9-0.2-2.9C83.3,31.5,83.3,33.6,83.4,34L83.4,34z"/>
	<path fill="#FFFFFF" d="M82.6,40.3c0.4,0.1,0.8,0.3,1.2,0.4c0.2-0.2,0.4-0.4,0.6-0.6c0-0.2-0.1-0.4-0.1-0.6c0,0,0,0-0.1,0h-0.1
		C83.3,39.6,83,39.9,82.6,40.3L82.6,40.3z"/>
	<path fill="#FFFFFF" d="M86.8,58c-0.6,0.1-1.1,0.7-1.5,1c-0.9,0.7-1.7,1.5-2.6,2.3c-0.4,0.3-0.7,0.7-1.1,1c1.5-0.3,4.9-1,5.5-1.9
		c0,0,0,0,0.1,0c-0.5,0-0.9,0-1.4,0c-0.2-0.3-0.2-0.7-0.1-1.1c0.3-0.2,1.1-0.2,1.6-0.3C87.4,58.8,87,58.2,86.8,58z"/>
	<path fill="#FFFFFF" d="M63.5,58.5L63.5,58.5c0.2,0.2,0.5,0.3,0.8,0.5c0.5,0.1,2.2-0.5,2.3-0.8c0.1-0.3-0.5-1.5-0.7-1.8
		C65.1,57.1,64.3,57.8,63.5,58.5z"/>
	<path fill="#FFFFFF" d="M62.7,56.6c0,0.6,0.1,1.2,0.1,1.7C63.7,58,63.9,56.5,62.7,56.6z"/>
	<path fill="#FFFFFF" d="M71,33.7L71,33.7c-0.2,0.2,0.1,1,0,1.3c0,0,0,0,0.1,0c0.4-0.2,0.5-0.7,0.3-1.2C71.3,33.8,71.2,33.7,71,33.7
		z"/>
	<path fill="#FFFFFF" d="M79.9,58.2c-0.6,0.4-1.3,0.8-2,1.1c-0.3,0.1-0.7,0.2-1,0.4c-0.1,0.1,0.5,2.6,0.6,2.8c0.2,0.1,0.5,0,0.8,0.1
		c0.9,0.1,2.8,0.1,3.2-0.5c0.5-0.8,0.9-1.7,1.3-2.6c0.9-2.5,2.1-5,2.2-8.3c-0.2,0.5-0.4,1-0.6,1.6C83.2,55,81.8,56.8,79.9,58.2z"/>
	<path fill="#FFFFFF" d="M84.5,40.8c-0.1,0-0.2,0.1-0.2,0.1c0.1,0,0.2,0.1,0.3,0.1C84.5,40.9,84.5,40.8,84.5,40.8z"/>
</g>
</svg>
