<?xml version="1.0" encoding="utf-8"?>
<!-- Generator: Adobe Illustrator 17.0.2, SVG Export Plug-In . SVG Version: 6.00 Build 0)  -->
<!DOCTYPE svg PUBLIC "-//W3C//DTD SVG 1.1//EN" "http://www.w3.org/Graphics/SVG/1.1/DTD/svg11.dtd">
<svg version="1.1" id="Layer_1" xmlns="http://www.w3.org/2000/svg" xmlns:xlink="http://www.w3.org/1999/xlink" x="0px" y="0px"
	 width="144px" height="144px" viewBox="0 0 144 144" enable-background="new 0 0 144 144" xml:space="preserve">
<g>
	<path fill="#FFFFFF" d="M40.566,118.015c-0.16-1.058-0.539-3.535-0.599-3.975c-0.04-0.239-0.1-0.319-0.24-0.319
		c-0.14,0-0.26,0.1-0.459,0.299c-0.24,0.24-1.019,0.479-1.458,0.499c-0.839,0.04-1.698-0.03-3.875-0.03l-0.481-0.052l-0.302,10.653
		l-0.345-10.452h-0.031c-2.077,0-2.916-0.06-3.975-0.12c-0.719-0.04-1.099-0.22-1.318-0.499c-0.18-0.219-0.24-0.299-0.38-0.299
		c-0.14,0-0.24,0.08-0.299,0.34c-0.08,0.399-0.739,3.035-0.959,3.874c-0.02,0.06,0,0.16,0.08,0.18l0.439,0.16
		c0.08,0.02,0.14-0.039,0.2-0.139c0.499-0.719,1.378-1.937,1.817-2.257c0.839-0.299,2.037-0.319,2.676-0.319h0.699v4.933
		c0,0.38,0,6.511-0.04,6.931c-0.04,0.36-0.28,0.599-0.679,0.599H30.02c-0.12,0-0.14,0.06-0.14,0.2v0.379c0,0.16,0.02,0.24,0.18,0.24
		c0.279,0,1.118-0.06,3.235-0.06c2.217,0,2.856,0.06,3.056,0.06c0.18,0,0.2-0.06,0.2-0.16v-0.459c0-0.14-0.02-0.2-0.2-0.2h-0.899
		c-0.479,0-0.639-0.299-0.679-0.799c-0.02-0.299-0.02-5.892-0.02-6.171v-5.493h0.659c0.459,0,2.237,0.08,2.736,0.38
		c0.499,0.479,1.278,1.518,1.718,2.237c0.08,0.139,0.12,0.2,0.2,0.18l0.419-0.16C40.546,118.175,40.586,118.095,40.566,118.015z"/>
	<path fill="#FFFFFF" d="M63.234,122.809c3.356,0,5.273-1.638,5.273-4.035c0-1.318-0.599-2.456-1.438-3.096
		c-1.158-0.898-2.337-1.098-4.793-1.098c-0.659,0-1.838,0.06-2.197,0.06c-2.097,0-2.816-0.06-3.036-0.06c-0.1,0-0.12,0.04-0.12,0.14
		v0.519c0,0.12,0.02,0.16,0.12,0.16h0.939c0.399,0,0.599,0.04,0.639,0.439c0.02,0.24,0.04,2.337,0.04,3.655v2.297
		c0,2.317-0.06,5.432-0.08,5.632c-0.06,0.499-0.2,0.599-0.879,0.599h-0.519c-0.1,0-0.12,0.04-0.12,0.14v0.54
		c0,0.08,0.02,0.139,0.16,0.139c0.212,0,0.998-0.077,2.668,0.079l0.236-11.459l0.312,11.225c1.826,0.078,2.519,0.155,2.776,0.155
		c0.16,0,0.18-0.06,0.18-0.16v-0.519c0-0.08-0.02-0.14-0.16-0.14h-1.018c-0.319,0-0.52-0.2-0.559-0.639
		c-0.02-0.239-0.04-2.956-0.04-3.894v-0.739C62.156,122.789,62.615,122.809,63.234,122.809z M61.617,115.399
		c0.359-0.08,0.599-0.1,0.939-0.1c0.819,0,2.816,0.579,2.816,3.336c0,0.739-0.08,1.498-0.479,2.117
		c-0.439,0.699-1.438,1.338-2.057,1.338c-0.32,0-0.779-0.02-1.218-0.12V115.399z"/>
	<path fill="#FFFFFF" d="M101.402,128.021h-0.819c-0.379,0-0.679-0.099-0.679-0.719c0-0.18-0.06-4.794-0.06-4.993v-1.538
		c0-0.239,0.06-4.653,0.06-4.853c0-0.36,0.3-0.52,0.799-0.52h0.579c0.1,0,0.16-0.04,0.16-0.14v-0.5c0-0.119-0.04-0.18-0.14-0.18
		c-0.263,0-0.949,0.031-2.705,0.154l-0.218,10.748l-0.358-10.962c-1.745-0.006-2.665,0.06-2.891,0.06c-0.08,0-0.139,0.04-0.139,0.12
		v0.579c0,0.08,0.06,0.12,0.16,0.12h0.959c0.42,0,0.619,0.2,0.659,0.679c0.02,0.26,0.08,3.855,0.08,4.334v1.398
		c0,1.059-0.06,5.373-0.1,5.672c-0.08,0.479-0.499,0.539-0.899,0.539h-0.579c-0.1,0-0.16,0.04-0.16,0.12v0.539
		c0,0.12,0.06,0.16,0.16,0.16c0.219,0,1.078-0.06,3.176-0.06c1.897,0,2.696,0.06,2.936,0.06c0.12,0,0.18-0.04,0.18-0.119v-0.56
		C101.562,128.061,101.502,128.021,101.402,128.021z"/>
	<path fill="#FFFFFF" d="M94.272,128.021h-0.679c-0.299,0-0.819-0.239-1.158-0.898c-0.28-0.54-1.578-4.254-2.037-5.812
		c-0.38-1.278-1.938-5.752-2.317-7.01c-0.06-0.22-0.1-0.34-0.22-0.34c-0.1,0-0.16,0.08-0.26,0.18
		c-0.09,0.102-0.685,0.198-0.912,0.318l3.625,10.346l-3.965-9.983c-0.363,0.143-0.727,0.261-0.985,0.317
		c-0.16,0.04-0.2,0.12-0.2,0.18c0,0.08,0.08,0.18,0.14,0.26c0.139,0.22,0.04,0.479-0.02,0.679c-0.18,0.539-1.797,4.833-1.957,5.232
		c-0.659,1.758-2.077,5.233-2.357,5.653c-0.399,0.599-0.879,0.878-1.358,0.878h-0.519c-0.12,0-0.14,0.06-0.14,0.18v0.38
		c0,0.14,0.02,0.259,0.14,0.259c0.279,0,0.719-0.06,2.177-0.06c1.638,0,2.456,0.06,2.716,0.06c0.16,0,0.18-0.06,0.18-0.22v-0.439
		c0-0.08-0.02-0.16-0.22-0.16h-0.699c-0.599,0-0.779-0.479-0.779-0.919c0-0.639,0.979-3.375,1.138-3.795h4.374
		c0.24,0.719,1.019,3.275,1.198,3.995c0.12,0.519-0.06,0.719-0.599,0.719h-0.559c-0.1,0-0.12,0.08-0.12,0.18v0.38
		c0,0.14,0.02,0.259,0.22,0.259c0.399,0,1.098-0.06,2.756-0.06c2.556,0,2.976,0.06,3.355,0.06c0.16,0,0.18-0.139,0.18-0.259v-0.38
		C94.412,128.101,94.392,128.021,94.272,128.021z M83.866,122.509c0.16-0.499,1.878-5.213,1.977-5.472
		c0.06-0.18,0.12-0.26,0.24-0.26c0.1,0,0.139,0.14,0.219,0.439c0.14,0.499,1.318,4.694,1.498,5.293H83.866z"/>
	<path fill="#FFFFFF" d="M114.385,124.686l-0.399-0.16c-0.12-0.06-0.18,0-0.24,0.12c-0.3,0.739-1.658,3.136-2.736,3.235
		c-1.079,0.1-1.977,0.1-2.916,0.1h-1.138c-0.06-0.799-0.06-5.113-0.06-5.453v-1.718c0-1.398,0.06-4.414,0.06-4.674
		c0-0.539,0.08-0.739,0.699-0.739h0.939c0.16,0,0.2-0.06,0.2-0.16v-0.459c0-0.14-0.02-0.2-0.179-0.2c-0.18,0-1.019,0.06-3.356,0.06
		c-1.817,0-2.536-0.06-2.756-0.06c-0.12,0-0.14,0.04-0.14,0.14v0.479c0,0.1,0.02,0.2,0.14,0.2h0.739c0.459,0,0.559,0.2,0.599,0.719
		c0.02,0.319,0.06,2.436,0.06,3.715v1.118c0,1.219-0.06,6.192-0.06,6.571c0,0.22-0.12,0.499-0.859,0.499h-0.619
		c-0.12,0-0.139,0.04-0.139,0.14v0.499c0,0.14,0.02,0.18,0.16,0.18c0.238,0,1.093,0.01,2.498,0.131l0.329-11.59l0.376,11.4
		c2.056,0.001,7.364,0.021,7.861,0.06c0.12-0.539,0.919-3.835,0.979-3.975C114.445,124.746,114.445,124.726,114.385,124.686z"/>
	<path fill="#FFFFFF" d="M53.708,115.918c-1.678-1.318-3.216-1.578-4.873-1.578c-1.798,0-4.054,0.399-5.812,2.536
		c-1.538,1.857-1.858,3.755-1.858,4.974c0,2.915,1.518,5.073,2.936,5.932c1.578,0.979,3.316,1.298,4.694,1.298
		c3.156,0,4.854-1.198,6.152-2.816c1.039-1.398,1.498-2.916,1.498-4.374C56.444,119.134,55.225,117.117,53.708,115.918z
		 M42.367,121.819c0.076-3.495,2.647-5.372,2.647-5.372s-1.945,1.574-1.951,5.456c-0.006,3.834,1.886,5.144,1.886,5.144
		S42.285,125.617,42.367,121.819z M48.954,128.142c-1.658,0-4.594-1.818-4.594-6.931c0-1.638,0.599-3.735,1.778-4.854
		c1.218-1.178,2.217-1.078,2.616-1.078c1.678,0,4.554,2.397,4.554,6.771C53.308,123.688,52.649,128.142,48.954,128.142z"/>
	<path fill="#FFFFFF" d="M78.015,121.69c-0.819-0.739-1.598-1.238-2.556-1.518c-0.979-0.279-2.117-0.759-2.637-1.298
		c-0.499-0.499-0.519-1.098-0.519-1.837c0-0.52,0.619-1.818,2.117-1.818c0.899,0,1.498,0.28,1.997,0.839
		c0.679,0.719,1.019,1.498,1.238,2.077c0.06,0.139,0.16,0.18,0.26,0.139l0.439-0.139c0.06-0.02,0.1-0.04,0.1-0.12l-0.1-1.066
		c-0.84-1.136-2.046-1.791-2.046-1.791c0.633,0.154,1.543,0.844,2.11,1.27l-0.284-1.828c-0.02-0.12-0.06-0.34-0.199-0.34
		c-0.12,0-0.22,0.04-0.3,0.12l-0.26,0.26c-0.12,0.14-0.26,0.18-0.46,0.1c-0.419-0.16-1.198-0.399-2.656-0.399
		c-1.218,0-1.977,0.279-2.876,0.958c-0.543,0.407-0.9,0.799-1.13,1.218c-0.489,1.68,0.361,2.983,2.68,4.583
		c0,0-2.355-1.151-3.259-3.229c0,0.04-0.043,0.031-0.05,0.305c-0.027,1.158,0.56,2.275,1.259,2.895
		c1.018,0.879,2.297,1.518,2.896,1.738c2.596,0.979,2.916,1.458,2.916,3.116c0,1.578-1.538,2.217-2.497,2.217
		c-0.958,0-1.937-0.44-2.516-1.359c-0.479-0.778-0.759-1.638-0.799-2.257c0-0.139-0.06-0.16-0.14-0.16l-0.519-0.04
		c-0.08,0-0.14,0-0.16,0.14l-0.12,2.053c0.93,0.887,1.716,1.301,1.716,1.301c-0.572-0.225-1.332-0.712-1.856-1.118l-0.06,1.559
		c-0.02,0.219,0.06,0.319,0.28,0.319c0.14,0,0.24-0.02,0.36-0.24c0.12-0.2,0.2-0.34,0.32-0.34c0.1,0,0.219,0.06,0.459,0.22
		c0.839,0.559,1.778,0.859,3.575,0.859c2.637,0,4.374-1.977,4.374-4.414C79.113,123.268,78.794,122.39,78.015,121.69z"/>
</g>
<g>
	<path fill="#FFFFFF" d="M58.781,42.151c0.706-0.421,1.387-1.562,1.453-2.523c-0.709,0.767-1.419,1.535-2.128,2.302
		C58.331,42.003,58.556,42.077,58.781,42.151z"/>
	<path fill="#FFFFFF" d="M63.327,41.257c-1.278,0.258-2.106,0.807-3.104,1.178c1.089,0.353,2.179,0.706,3.268,1.059
		C63.437,42.748,63.383,42.002,63.327,41.257z"/>
	<path fill="#FFFFFF" d="M41.979,82.038c-0.474,0.042-0.949,0.082-1.422,0.124c0.024,0.475,0.048,0.95,0.072,1.425
		c0.492-0.025,0.984-0.05,1.476-0.075C42.17,83.088,42.129,82.38,41.979,82.038z"/>
	<path fill="#FFFFFF" d="M43.354,85.999c0.061,0.201,0.122,0.402,0.184,0.603c0.14-0.246,0.281-0.491,0.422-0.736
		C43.757,85.911,43.556,85.955,43.354,85.999z"/>
	<path fill="#FFFFFF" d="M46.418,87.068c-0.648,0.067-0.913,0.321-1.351,0.528c-0.047,0.07-0.094,0.141-0.142,0.212
		c0.421,0.585,1.06,1.052,1.704,1.393C46.559,88.49,46.489,87.778,46.418,87.068z"/>
	<path fill="#FFFFFF" d="M76.771,46.747c-1.84-2.406-3.681-4.814-5.52-7.22c-0.271,0.109-0.443,0.42-0.526,0.69
		c1.413,2.037,2.827,4.075,4.239,6.112C75.566,46.468,76.168,46.608,76.771,46.747z"/>
	<path fill="#FFFFFF" d="M70.198,40.907c-0.994,1.079-2.096,2.487-3.514,3.138c-0.015,0.035-0.03,0.07-0.046,0.104
		c2.378,0.61,4.757,1.221,7.135,1.831c-1.09-1.696-2.18-3.393-3.269-5.089C70.402,40.897,70.3,40.902,70.198,40.907z"/>
	<path fill="#FFFFFF" d="M59.491,36.043c-0.983,1.75-1.965,3.502-2.948,5.252c0.02,0.067,0.041,0.134,0.061,0.201
		c0.136,0.203,0.394,0.245,0.629,0.325c0.786-0.108,1.247-1.068,1.655-1.563c0.485-0.501,0.97-1.002,1.455-1.503
		c0.471-0.84,0.462-3.633,0.367-4.815C60.12,34.294,59.826,35.439,59.491,36.043z"/>
	<path fill="#FFFFFF" d="M107.088,94.14c-0.173-0.399-0.347-0.799-0.52-1.198c-0.129,0.143-0.258,0.285-0.387,0.428
		C106.426,93.792,106.627,93.956,107.088,94.14z"/>
	<path fill="#FFFFFF" d="M118.366,85.098c-0.923-2.385-1.85-4.419-3.179-6.318c-0.815-0.979-1.63-1.958-2.445-2.937
		c-0.167,0.187-1.287,2.785-1.224,3.022c2.193,3.209,4.386,6.418,6.579,9.626c0.292-0.587,0.577-1.179,0.847-1.778
		C118.732,86.039,118.492,85.424,118.366,85.098z"/>
	<path fill="#FFFFFF" d="M109.628,96.919c1.567-0.078,3.189-1.233,3.711-2.281c-1.962,0.303-2.335,1.478-3.666,2.176
		C109.659,96.85,109.643,96.885,109.628,96.919z"/>
	<path fill="#FFFFFF" d="M35.981,96.529c-0.001-0.017-0.002-0.034-0.003-0.051c-1.835-0.762-1.512-2.045-4.483-1.864
		c0.023-0.222,0.046-0.445,0.068-0.667c-1.152-1.055-3.808-0.206-5.157-1.064c-1.136-0.724-0.755-3.075-1.396-4.368
		c-0.002-0.034-0.003-0.068-0.005-0.102c-2.307,1.087-3.985-2.008-1.214-2.796c-0.018-0.696-0.037-1.393-0.055-2.089
		c-0.531-0.113-0.672-0.385-0.662-0.987c0.609-0.777,1.334-1.122,2.13-0.261c-0.055,0.258-0.11,0.516-0.165,0.774
		c0.001,0.017,0.002,0.034,0.003,0.051c5.508-0.705,11.018-1.41,16.526-2.115c-0.034-0.7-0.247-1.229,0.421-1.756
		c0.577-0.151,0.984,0.044,1.293,0.343c0.166,0.591,0.033,0.876-0.246,1.186c0.179,0.108,0.258,0.094,0.372,0.287
		c0.006,0.782,0.011,1.564,0.017,2.346c0.501,0.097,0.948,0.345,1.161,0.757c0.035,0.015,0.07,0.03,0.105,0.046
		c0.202-1.513,0.526-3.137,0.721-4.884c0.309-2.764-0.379-6.011-0.979-8.216c-0.533-1.961-0.852-3.866-1.514-5.689
		c-1.401-3.86-3.397-7.149-5.276-10.447C36.528,53,33.859,47.74,31.361,47.78c-0.2-0.268-0.217-0.416-0.197-0.857
		c0.048-0.053,0.097-0.107,0.145-0.161c1.72,0.119,3.085,1.901,5.005,2.093c1.59-1.147,1.65-3.46,0.878-5.81
		c-0.78-2.377-2.422-5.739-4.517-6.557c-0.495-0.193-1.106-0.139-1.746-0.217c-0.038-0.083-0.076-0.166-0.115-0.25
		c0.014-0.051,0.029-0.103,0.043-0.155c0.609-0.292,1.933,0.279,2.525,0.484c2.271,0.788,4.38,1.754,6.563,2.626
		c0.169-0.893-0.261-1.801-0.625-2.264c0.189-0.376,0.626-2.082,0.38-2.571c-0.218-0.434-0.479-0.557-0.367-1.206
		c0.115-0.074,0.23-0.148,0.346-0.222c0.102-0.005,0.204-0.01,0.305-0.015c0.163,0.196,0.326,0.392,0.489,0.588
		c-0.001,0.411-0.148,0.527-0.215,0.776c0.017,0.016,0.035,0.032,0.053,0.048c0.113,0.215,0.226,0.431,0.339,0.646
		c0.278,1.027-0.291,1.051,0.401,1.867c-0.049,0.403-0.29,0.398-0.376,0.631c0.122,0.725,0.244,1.45,0.365,2.175
		c1.975,1.119,4.141,2.068,6.181,3.156c0.945,0.53,1.891,1.06,2.836,1.591c0.019,0.033,0.037,0.066,0.056,0.099
		c-0.096,0.124-0.191,0.248-0.287,0.371c-0.47-0.197-0.939-0.394-1.408-0.592c-0.033,0.019-0.066,0.037-0.099,0.056
		c0.473,0.756,0.989,1.471,1.249,2.488c0.556,2.173-0.642,4.811-2.019,5.46c0.001,0.017,0.002,0.034,0.003,0.051
		c0.58,0.038,1.161,0.077,1.741,0.115c1.669-2.636,3.338-5.272,5.007-7.908c-0.952-0.786-1.792-1.706-2.827-2.408
		c-1.664-0.953-3.328-1.906-4.992-2.859c-1-0.612-2.001-1.225-3.002-1.837c-0.037-0.049-0.073-0.098-0.11-0.148
		c0.624-0.254,2.89,0.835,3.576,1.094c2.903,1.095,5.578,2.649,8.84,3.276c0.657-1.139,1.313-2.278,1.97-3.417
		c0.953-1.647,1.908-3.295,2.861-4.942c0.229-0.841-1.026-2.912-1.298-3.455c-1.213-2.427-3.194-4.814-5.27-6.314
		c-0.619-0.462-1.238-0.923-1.856-1.385c0.346-1.358,1.747,0.115,2.321,0.494c2.28,1.506,4.688,3.218,7.164,4.432
		c0.017-0.001,0.034-0.002,0.051-0.002c-0.223-2.046-0.446-4.094-0.669-6.14c-0.171-0.025-0.342-0.051-0.514-0.076
		c-0.109-0.158-0.146-0.153-0.12-0.351c0.108-0.213,0.3-0.296,0.595-0.337c-0.132-0.327-0.517-0.851-0.423-1.305
		c0.042-0.204,0.377-0.356,0.215-0.776c-0.137-0.356-0.547-0.489-0.311-1.107c0.083-0.168,0.115-0.188,0.293-0.27
		c0.301-0.129,0.659,0.055,0.781,0.317c0.218,0.438-0.115,0.715-0.31,0.934c0.109,0.773,0.6,0.659,0.734,1.391
		c-0.096,0.251-0.138,0.36-0.384,0.479c0.005,0.102,0.01,0.204,0.015,0.305c0.293,0.061,0.419,0.124,0.578,0.328
		c-0.028,0.351-0.129,0.396-0.382,0.53c0.388,2.276,0.776,4.553,1.164,6.829c1.999,1.191,3.999,2.382,5.999,3.573
		c0.758,0.456,2.114,0.961,2.587,1.706c0.167,0.295,0.056,0.606-0.168,0.723c-0.204,0.092-0.384,0.004-0.565-0.074
		c0.524,0.936,1.329,2.309,1.117,3.924c-0.161,0.518-0.321,1.037-0.482,1.555c2.418,2.751,4.838,5.503,7.257,8.254
		c0.393,0.031,0.786,0.062,1.179,0.093c1.216,0.196,3.208,0.142,4.22,0.704c-0.013,0.086-0.025,0.172-0.038,0.257
		c-0.283,0.133-0.565,0.267-0.847,0.4c0.507,0.604,1.014,1.207,1.521,1.811c0.643,0.937,1.286,1.874,1.929,2.811
		c0.386,0.235,0.772,0.471,1.158,0.707c0.595-0.548,0.918-1.488,1.263-2.258c2.59-5.779-2.204-10.255-6.315-11.823
		c-0.019-0.033-0.037-0.066-0.056-0.099c0.03-0.086,0.059-0.173,0.089-0.26c0.507-0.328,1.226,0.119,1.751,0.319
		c1.563,0.635,3.126,1.27,4.689,1.905c0.017-0.001,0.034-0.001,0.05-0.002c0.267-3.243,0.373-6.592,0.115-9.803
		c-0.153,0.008-0.306,0.016-0.458,0.023c-0.114-0.162-0.157-0.197-0.179-0.501c0.158-0.188,0.229-0.325,0.488-0.433
		c-0.008-0.152-0.015-0.305-0.023-0.458c-0.265-0.191-0.53-0.381-0.794-0.572c-0.004-0.068-0.007-0.136-0.011-0.204
		c0.162-0.281,0.346-0.429,0.58-0.641c0.574,0.032,0.791,0.257,1.148,0.503c0.002,0.034,0.004,0.068,0.005,0.102
		c-0.129,0.143-0.258,0.285-0.387,0.428c0.015,0.378,0.07,0.518,0.24,0.702c0.11,0.101,0.137,0.089,0.361,0.084
		c0.247,0.525-0.366,0.543-0.147,1.13c0.743,1.992,1.502,4.337,2.015,6.531c0.398,1.7-0.78,2.877-0.198,4.143
		c2.361,0.951,4.723,1.903,7.084,2.854c0.022,0.084,0.043,0.168,0.064,0.252c-0.046,0.104-0.091,0.209-0.138,0.313
		c-0.203,0.027-0.405,0.055-0.608,0.082c0.318,1.346,0.966,3.01,0.38,4.471c-0.486,1.215-1.775,1.706-2.412,2.725
		c-0.378,0.937-0.755,1.875-1.133,2.813c3.463,0.238,6.569,1.681,10.636,1.45c0.082,0.336,0.116,0.494,0.041,0.814
		c-0.25,0.174-0.455,0.284-0.904,0.301c0.823,0.451,1.645,0.903,2.468,1.354c2.394,1.529,4.472,3.728,5.545,6.709
		c0.798,2.215,0.466,5.164,0.057,7.14c-0.122,0.59,0.222,1.077,0.575,1.297c1.573,0.981,5.425,1.506,8.578,1.248
		c0.882-3.854,1.348-7.866,1.348-11.986c0-29.564-23.967-53.53-53.53-53.53c-29.564,0-53.53,23.966-53.53,53.53
		c0,12.025,3.966,23.124,10.66,32.061C30.186,96.618,33.194,96.67,35.981,96.529z"/>
	<path fill="#FFFFFF" d="M114.083,88.173c-1.387-2.191-2.774-4.383-4.161-6.575c-0.861,1.132-1.722,2.265-2.582,3.397
		c0.11,0.778,0.703,1.378,1.068,1.936c1.079,1.816,2.158,3.632,3.236,5.448c1.002,0.129,2.979-1.094,4.117-1.332
		C115.658,89.961,114.598,88.955,114.083,88.173z"/>
	<path fill="#FFFFFF" d="M101.107,91.892c1.621-0.219,3.243-0.437,4.865-0.655c-0.541-0.942-1.082-1.884-1.624-2.826
		C103.616,88.812,101.602,91.145,101.107,91.892z"/>
	<path fill="#FFFFFF" d="M58.343,94.781c0.588,0.191,1.176,0.383,1.764,0.574c2.836,1.094,5.853,1.811,9.11,2.548
		c1.303,0.206,2.606,0.412,3.909,0.618c-0.223-1.383-0.446-2.767-0.67-4.15c-1.894,0.215-3.788,0.431-5.682,0.646
		C63.837,95.621,60.679,95.032,58.343,94.781z"/>
	<path fill="#FFFFFF" d="M28.543,97.774c-0.158,0.008-0.317,0.016-0.475,0.024c0.167,0.212,0.338,0.422,0.509,0.632
		c-0.009-0.184-0.019-0.369-0.028-0.554C28.547,97.842,28.545,97.808,28.543,97.774z"/>
	<path fill="#FFFFFF" d="M39.289,82.328c-0.541,0.061-1.082,0.123-1.623,0.184c-0.016,0.018-0.032,0.036-0.048,0.054
		c0.073,0.439,0.147,0.877,0.22,1.315c0.492-0.025,0.984-0.05,1.476-0.075C39.306,83.313,39.297,82.821,39.289,82.328z"/>
	<path fill="#FFFFFF" d="M53.115,47.133c-0.912,1.442-2.675,3.421-3.108,5.107c0.869-0.008,6.088-0.269,6.372-0.12
		c0.475,0.279,0.017,0.717,0.258,1.059c0.645,0.914,1.607,1.717,2.328,2.637c1.814,2.314,3.341,4.911,4.391,8.094
		c2.6,7.88-1.433,16.263-5.315,19.915c0.491,1.302,0.983,2.604,1.474,3.905c1.107-0.919,1.903-2.43,2.618-3.705
		c4.168-7.426,4.388-18.104,0.663-27.128c-1.288-3.121-2.988-6.109-4.926-8.577c-1.064-1.204-2.129-2.409-3.194-3.614
		C53.989,45.293,53.602,46.363,53.115,47.133z"/>
	<path fill="#FFFFFF" d="M34.746,84.293c0.592-0.063,1.184-0.128,1.776-0.192c-0.041-0.474-0.082-0.948-0.123-1.423
		c-0.558,0.062-1.116,0.125-1.674,0.187C34.679,83.316,34.654,83.825,34.746,84.293z"/>
	<path fill="#FFFFFF" d="M95.707,53.898c-0.515,0.23-1.031,0.461-1.546,0.691c0.077,0.506,0.153,1.013,0.23,1.519
		c0.102-0.005,0.204-0.01,0.306-0.015C95.026,55.935,95.615,54.427,95.707,53.898z"/>
	<path fill="#FFFFFF" d="M42.762,49.241c0.086,0.676,0.171,1.352,0.256,2.028c0.637,0.155,1.274,0.309,1.912,0.464
		c0.033-0.019,0.066-0.037,0.099-0.056C45.434,50.076,44.355,49.173,42.762,49.241z"/>
	<path fill="#FFFFFF" d="M32.206,84.524c0.355-0.035,0.711-0.069,1.066-0.105c0.063-0.445,0.125-0.891,0.188-1.336
		c-0.001-0.017-0.002-0.034-0.003-0.051c-0.441,0.04-0.881,0.079-1.321,0.118C32.16,83.608,32.183,84.066,32.206,84.524z"/>
	<path fill="#FFFFFF" d="M37.823,49.44c0.712,0.694,2.196,0.961,3.228,1.265c0.349-0.214,0.171-1.441-0.037-1.733
		C39.757,49.038,38.748,49.229,37.823,49.44z"/>
	<path fill="#FFFFFF" d="M25,85.299c0.287-0.031,0.575-0.063,0.863-0.094c0.015-0.035,0.031-0.07,0.046-0.105
		c-0.07-0.371-0.139-0.741-0.209-1.112c-0.271,0.031-0.541,0.061-0.812,0.092C24.925,84.486,24.963,84.893,25,85.299z"/>
	<path fill="#FFFFFF" d="M108.888,99.407c-0.29,0.192-1.201-0.105-1.834,0.043c-1.099,0.255-2.661,0.743-3.346,1.445
		c-0.251,0.744-0.503,1.488-0.754,2.233c-0.55,1.499-1.242,3.008-2.025,4.338c-0.392,0.665-0.809,1.287-1.25,1.873
		c5.421-3.595,10.149-8.148,13.942-13.422C112.044,97.08,110.466,98.244,108.888,99.407z"/>
	<path fill="#FFFFFF" d="M29.554,83.537c0.022,0.424,0.043,0.848,0.065,1.273c0.473-0.058,0.947-0.116,1.42-0.174
		c-0.039-0.423-0.077-0.847-0.116-1.27c-0.423,0.039-0.846,0.077-1.27,0.116C29.62,83.499,29.587,83.518,29.554,83.537z"/>
	<path fill="#FFFFFF" d="M26.966,83.821c0.071,0.404,0.143,0.809,0.215,1.214c0.389-0.037,0.779-0.073,1.168-0.11
		c0.099-0.363,0.056-0.86-0.014-1.275c-0.405,0.054-0.811,0.109-1.216,0.164C27.068,83.816,27.017,83.819,26.966,83.821z"/>
	<path fill="#FFFFFF" d="M91.665,40.633c0.211-1.635-0.339-2.848-0.667-4.099c-0.245,0.78,0.479,3.173,0.616,4.102
		C91.631,40.635,91.649,40.634,91.665,40.633z"/>
	<path fill="#FFFFFF" d="M90.292,41.723c0.14,0.035,0.298-0.043,0.283-0.248c-0.217-1.928-0.413-3.675-0.631-5.602
		c0.01,0.834,0.043,5.165,0.188,5.713C90.174,41.748,90.292,41.723,90.292,41.723z"/>
	<path fill="#FFFFFF" d="M88.645,54.512c0.797,0.283,1.594,0.565,2.39,0.848c0.423-0.324,0.845-0.766,1.111-1.23
		c-0.087-0.369-0.174-0.739-0.261-1.109c-0.076-0.093-0.006-0.031-0.107-0.096c-0.086-0.03-0.173-0.059-0.26-0.089
		c-1.545,0.085-2.01,0.825-2.831,1.521C88.674,54.409,88.66,54.46,88.645,54.512z"/>
	<path fill="#FFFFFF" d="M97.023,89.855c-1.225,0.142-2.212,1.445-3.006,2.092c-1.817,1.481-3.479,3.084-5.225,4.602
		c-0.748,0.685-1.496,1.368-2.243,2.053c3.022-0.563,9.784-1.943,11.037-3.724c0.034-0.002,0.068-0.004,0.101-0.005
		c-0.934,0.031-1.867,0.061-2.802,0.091c-0.445-0.565-0.432-1.377-0.21-2.132c0.659-0.414,2.233-0.484,3.188-0.52
		C98.209,91.472,97.5,90.207,97.023,89.855z"/>
	<path fill="#FFFFFF" d="M50.338,90.9c-0.015,0.035-0.03,0.07-0.046,0.104c0.525,0.297,1.05,0.593,1.576,0.89
		c0.949,0.227,4.419-1.098,4.618-1.511c0.169-0.56-1.041-3.061-1.308-3.658C53.565,88.117,51.951,89.508,50.338,90.9z"/>
	<path fill="#FFFFFF" d="M48.762,87c0.093,1.152,0.185,2.304,0.278,3.455C50.696,89.964,51.115,86.874,48.762,87z"/>
	<path fill="#FFFFFF" d="M65.465,41.148c-0.017,0.001-0.034,0.002-0.051,0.003c-0.252,0.425,0.191,2.051,0.134,2.646
		c0.036,0.032,0.071,0.064,0.107,0.096c0.757-0.472,0.912-1.466,0.54-2.425C65.952,41.361,65.709,41.254,65.465,41.148z"/>
	<path fill="#FFFFFF" d="M83.115,90.256c-1.227,0.854-2.605,1.65-4.016,2.296c-0.668,0.238-1.336,0.476-2.005,0.714
		c-0.106,0.149,0.914,5.182,1.155,5.656c0.334,0.287,1.1,0.06,1.639,0.121c1.787,0.204,5.599,0.18,6.381-0.936
		c1.068-1.523,1.894-3.352,2.595-5.183c1.882-4.919,4.197-10.069,4.313-16.547c-0.406,1.041-0.813,2.082-1.219,3.124
		C89.732,83.787,87.046,87.52,83.115,90.256z"/>
	<path fill="#FFFFFF" d="M92.466,55.39c-0.15,0.059-0.3,0.117-0.45,0.176c0.173,0.059,0.346,0.119,0.52,0.177
		C92.512,55.626,92.489,55.508,92.466,55.39z"/>
</g>
</svg>
